<?xml version="1.0" standalone="no"?>
<!DOCTYPE svg PUBLIC "-//W3C//DTD SVG 20010904//EN"
 "http://www.w3.org/TR/2001/REC-SVG-20010904/DTD/svg10.dtd">
<svg version="1.0" xmlns="http://www.w3.org/2000/svg"
 width="1449.000000pt" height="1449.000000pt" viewBox="0 0 1449.000000 1449.000000"
 preserveAspectRatio="xMidYMid meet">
<metadata>
Created by potrace 1.11, written by Peter Selinger 2001-2013
</metadata>
<g transform="translate(0.000000,1449.000000) scale(0.100000,-0.100000)"
fill="#000000" stroke="none">
<path d="M5669 12888 c-31 -19 -36 -37 -18 -70 9 -16 7 -36 -6 -84 -12 -43
-15 -76 -10 -102 l7 -37 19 40 c9 22 18 49 18 61 1 31 33 54 74 54 22 0 38 5
38 13 9 80 8 86 -14 89 -12 2 -22 10 -22 18 -1 41 -35 49 -86 18z"/>
<path d="M7234 12840 c-12 -5 -25 -13 -29 -19 -3 -6 -14 -11 -24 -11 -10 0
-24 -7 -31 -15 -7 -9 -29 -15 -54 -15 -91 0 -146 -12 -171 -38 -18 -18 -32
-23 -52 -19 -38 7 -71 -11 -75 -42 -3 -29 -35 -41 -50 -19 -7 10 -11 10 -15 1
-2 -7 -20 -13 -38 -13 -19 0 -36 -4 -40 -9 -3 -5 -20 -7 -39 -4 -19 3 -36 1
-40 -6 -10 -16 -43 -13 -50 4 -3 8 -12 15 -20 15 -7 0 -16 -7 -20 -15 -3 -8
-17 -15 -31 -15 -15 0 -24 -4 -21 -9 3 -4 -3 -16 -14 -26 -19 -17 -22 -17 -59
0 -41 18 -61 14 -61 -11 0 -8 -4 -14 -9 -14 -11 0 -23 59 -15 72 9 14 -28 38
-51 32 -44 -12 -106 -47 -115 -64 -6 -10 -10 -34 -10 -54 0 -25 -6 -39 -22
-51 -22 -15 -23 -14 -28 7 -4 16 -8 19 -14 10 -4 -8 -16 -10 -28 -6 -19 6 -20
3 -14 -22 4 -16 4 -26 0 -21 -4 4 -18 -3 -31 -15 -28 -26 -35 -21 -36 26 -1
35 -17 53 -17 19 0 -33 -24 -83 -41 -83 -9 0 -28 -11 -43 -25 -33 -30 -38 -31
-61 -5 -11 13 -15 27 -11 43 3 15 1 29 -8 36 -8 6 -17 42 -21 79 -7 64 -18 92
-36 92 -5 0 -9 -18 -9 -40 0 -38 -12 -52 -25 -30 -13 21 -24 8 -31 -36 -4 -30
-2 -54 6 -69 10 -18 10 -28 -1 -51 -14 -28 -42 -46 -37 -24 2 7 -2 14 -9 17
-7 3 -18 -17 -28 -52 -9 -31 -23 -59 -32 -62 -10 -4 -13 -18 -11 -47 2 -36 -1
-42 -25 -54 -15 -7 -27 -20 -27 -28 0 -17 -5 -17 -31 -4 -13 7 -19 7 -19 0 0
-5 4 -10 9 -10 5 0 12 -9 16 -19 3 -11 21 -26 39 -35 39 -18 50 -39 36 -67
-15 -26 -39 -24 -50 5 -11 30 -29 41 -43 27 -7 -7 -5 -20 7 -43 23 -43 19 -94
-8 -90 -17 3 -18 1 -7 -12 7 -8 9 -21 5 -27 -4 -8 -3 -9 4 -5 8 5 12 -3 12
-24 0 -25 -3 -31 -16 -26 -9 3 -18 6 -20 6 -2 0 -2 11 2 25 4 15 2 25 -5 25
-6 0 -11 -6 -11 -13 0 -19 -20 -36 -36 -30 -8 3 -14 12 -14 20 0 23 -33 73
-48 73 -13 0 -12 -12 5 -56 5 -13 -15 -28 -37 -29 -8 0 -14 -8 -14 -17 1 -14
-6 -18 -37 -18 -21 0 -41 5 -45 11 -3 6 -17 8 -33 4 -14 -4 -51 -9 -81 -11
-30 -2 -86 -11 -125 -20 -38 -8 -101 -22 -139 -29 -40 -9 -75 -22 -85 -33 -9
-10 -28 -27 -43 -36 -16 -10 -28 -25 -28 -33 0 -10 -7 -14 -20 -10 -14 4 -30
-7 -57 -38 -68 -76 -75 -89 -118 -205 -9 -25 -21 -51 -27 -58 -6 -7 -12 -67
-14 -135 -1 -67 -5 -130 -9 -139 -4 -9 -4 -22 0 -28 3 -5 -1 -10 -10 -10 -29
0 -48 -93 -24 -117 8 -8 7 -17 -5 -34 -9 -13 -16 -37 -16 -54 0 -16 -7 -48
-15 -70 -20 -55 -18 -76 5 -82 23 -6 27 -31 6 -39 -15 -6 -58 -104 -77 -174
-6 -25 -13 -124 -14 -220 -4 -212 -14 -411 -23 -425 -4 -5 -7 -132 -7 -281 0
-192 -4 -276 -12 -286 -7 -8 -16 -86 -23 -188 -6 -96 -15 -205 -21 -242 -6
-37 -11 -92 -11 -123 -1 -45 -4 -55 -15 -51 -8 3 -16 6 -18 6 -2 0 -24 29 -49
64 -58 82 -121 136 -157 136 -27 0 -27 -1 -18 -36 6 -19 25 -61 44 -93 21 -36
38 -81 44 -121 6 -34 19 -80 30 -101 14 -26 19 -52 16 -78 -2 -27 1 -41 11
-45 7 -3 11 -11 8 -19 -7 -18 22 -41 42 -33 17 6 55 -27 67 -58 3 -8 19 -18
34 -22 49 -10 53 -13 53 -33 0 -11 5 -21 12 -23 14 -5 12 -86 -2 -104 -8 -8
-8 -14 0 -19 17 -10 0 -116 -26 -162 -21 -37 -50 -63 -68 -63 -8 0 -4 64 6 76
5 8 1 13 -12 17 -12 3 -20 13 -20 26 0 12 -5 21 -10 21 -11 0 -14 -7 -25 -53
-4 -21 -11 -28 -26 -25 -15 2 -26 18 -38 56 -10 29 -27 59 -37 67 -19 14 -28
16 -139 18 -33 1 -63 6 -66 11 -4 4 -16 3 -28 -3 -17 -9 -30 -9 -56 0 -31 12
-36 11 -48 -6 -8 -10 -19 -15 -25 -11 -6 3 -13 2 -17 -4 -3 -5 -14 -10 -23
-10 -39 -1 -96 -98 -106 -180 -3 -22 -7 -44 -10 -49 -3 -5 -1 -35 5 -67 10
-57 23 -89 95 -240 19 -39 34 -77 34 -85 0 -8 8 -36 18 -62 l18 -48 12 38 c6
21 13 70 15 108 4 62 9 78 41 123 25 36 36 63 36 88 0 19 4 44 10 54 12 22 78
62 91 55 5 -4 9 -1 9 5 0 17 58 2 81 -21 10 -10 19 -32 19 -48 0 -25 -5 -30
-32 -36 -47 -9 -88 -26 -88 -36 0 -5 5 -9 10 -9 6 0 10 -7 10 -15 0 -8 -5 -15
-11 -15 -5 0 -7 -5 -3 -12 5 -8 2 -9 -9 -5 -12 4 -17 1 -17 -12 0 -23 10 -33
24 -22 6 5 26 11 44 13 31 4 33 3 30 -21 -3 -25 -6 -26 -63 -26 -57 0 -60 1
-57 23 2 19 0 21 -11 10 -19 -20 -57 -84 -57 -97 0 -6 6 -11 13 -11 8 0 25 -9
38 -21 19 -17 21 -23 11 -37 -7 -9 -15 -24 -19 -32 -4 -8 -10 -17 -14 -20 -16
-11 -50 -196 -47 -253 2 -47 0 -58 -14 -63 -20 -6 -22 -16 -9 -42 5 -9 14 -82
21 -162 13 -169 59 -456 94 -585 41 -151 136 -424 166 -477 5 -10 19 -46 31
-80 11 -35 24 -72 29 -83 98 -238 96 -232 70 -240 -11 -4 -28 -15 -38 -25 -9
-10 -26 -19 -37 -22 -22 -4 -47 -46 -37 -62 4 -6 5 -19 4 -28 -2 -10 4 -28 12
-40 21 -29 20 -38 -1 -38 -14 -1 -12 -5 10 -23 29 -24 36 -47 14 -47 -7 0 -18
5 -24 11 -8 8 -13 8 -17 0 -4 -6 -1 -11 7 -11 22 0 31 -32 12 -43 -18 -10 -11
-67 13 -105 22 -33 5 -44 -43 -27 -43 14 -57 5 -31 -21 23 -22 20 -37 -3 -24
-46 24 -53 6 -16 -38 34 -40 32 -85 -1 -52 -6 6 -24 12 -40 14 -16 3 -37 7
-46 11 -26 10 -23 -22 3 -36 17 -9 20 -17 16 -45 -3 -19 -2 -34 2 -34 4 0 6
-14 3 -30 -3 -20 2 -37 12 -49 10 -11 16 -25 15 -33 -2 -7 3 -23 10 -36 9 -18
10 -27 1 -37 -13 -16 -5 -35 15 -35 8 0 11 -7 8 -19 -3 -13 -11 -17 -24 -14
-24 7 -25 -6 -2 -22 15 -11 15 -15 4 -29 -7 -9 -10 -16 -6 -16 4 0 3 -6 -3
-13 -6 -7 -9 -25 -7 -39 4 -20 0 -27 -17 -31 -27 -8 -41 1 -34 20 4 10 0 13
-11 11 -22 -4 -30 -38 -10 -38 20 0 30 -29 12 -36 -8 -3 -19 -3 -25 1 -16 10
-40 -14 -40 -42 0 -13 9 -33 20 -45 27 -29 25 -45 -5 -50 -17 -4 -25 -1 -25 8
0 8 5 14 10 14 6 0 10 7 10 16 0 24 -23 11 -27 -15 -2 -12 2 -31 7 -42 9 -15
7 -19 -5 -19 -8 0 -15 -9 -15 -20 0 -19 -25 -29 -32 -12 -8 21 -69 51 -121 61
-31 6 -67 16 -80 22 -42 22 -112 93 -109 111 2 11 -3 18 -11 18 -8 0 -28 15
-45 34 -17 19 -33 32 -36 29 -3 -3 -13 -3 -22 1 -13 5 -14 9 -4 21 10 12 10
15 -3 15 -8 0 -18 7 -21 16 -3 8 -10 13 -16 9 -6 -4 -5 -13 2 -25 9 -15 10
-22 1 -31 -8 -8 -16 -4 -28 15 -10 14 -25 26 -34 26 -14 0 -14 2 -1 11 12 9
11 9 -5 3 -11 -4 -42 -6 -68 -5 -38 2 -47 -1 -41 -11 5 -10 4 -11 -7 0 -16 15
-29 16 -29 1 0 -11 82 -141 141 -224 16 -22 46 -69 68 -105 45 -76 194 -252
360 -429 108 -115 329 -311 481 -426 36 -27 119 -92 185 -145 66 -52 154 -118
195 -146 41 -27 119 -80 172 -117 53 -37 101 -67 107 -67 18 0 28 -30 81 -236
82 -318 88 -334 128 -372 33 -32 39 -34 85 -28 27 4 66 18 88 32 34 21 39 29
39 62 0 20 -14 88 -30 151 -16 62 -27 117 -25 122 3 4 61 -28 128 -72 261
-172 365 -240 432 -287 122 -85 226 -140 347 -182 62 -22 69 -22 85 -8 10 9
31 20 46 23 18 5 26 12 23 21 -4 10 2 14 19 14 18 0 26 7 31 24 6 25 29 40 45
30 5 -3 9 1 9 9 0 16 136 157 151 157 5 0 9 7 9 15 0 9 11 21 25 27 14 6 25
18 26 27 1 25 33 75 55 86 11 6 31 20 44 33 13 12 28 22 33 22 5 0 6 11 3 25
-5 18 -2 25 9 25 8 0 15 6 15 14 0 8 10 23 23 33 13 10 27 30 30 44 4 15 16
29 26 32 11 3 26 20 34 40 8 19 24 41 34 48 11 8 25 30 32 51 7 20 19 39 27
42 10 4 13 14 8 33 -5 23 -4 26 7 16 18 -17 29 -16 29 2 0 8 3 14 8 13 13 -2
42 14 42 24 0 6 6 24 14 41 8 18 16 41 18 52 2 12 11 20 23 20 15 0 21 8 23
33 2 20 9 32 18 32 15 0 19 15 7 23 -5 2 -3 3 2 2 19 -5 51 29 61 64 7 26 17
37 38 42 16 4 35 17 43 29 9 13 21 19 32 15 11 -3 30 8 55 34 20 21 55 44 77
51 21 7 39 16 39 20 0 4 24 20 54 34 30 15 74 45 98 67 23 22 54 45 68 50 14
5 31 22 38 39 8 16 22 30 34 32 28 4 35 28 11 34 -11 3 -24 19 -30 35 -13 34
-29 38 -38 8 -5 -16 -10 -18 -21 -8 -11 9 -14 8 -14 -5 0 -19 -19 -21 -26 -3
-5 13 -10 52 -13 90 0 9 -4 17 -9 17 -4 0 -7 -21 -6 -48 0 -26 -1 -53 -4 -59
-7 -21 -21 -15 -28 11 -9 35 -34 42 -34 9 0 -21 -2 -23 -15 -13 -8 7 -17 28
-21 49 -10 57 -21 71 -55 71 -22 0 -32 -5 -36 -20 -6 -23 -14 -25 -30 -9 -6 6
-21 16 -34 23 -29 14 -36 36 -12 36 26 0 32 7 26 30 -4 16 -9 18 -26 9 -17 -9
-23 -7 -37 11 -15 20 -16 26 -4 49 16 31 18 61 4 61 -5 0 -10 -9 -10 -21 0
-13 -4 -18 -12 -13 -7 4 -22 8 -34 9 -18 0 -23 -6 -28 -34 -3 -19 0 -41 6 -48
8 -10 5 -13 -16 -13 -19 0 -26 5 -26 20 0 11 -11 38 -25 60 -24 38 -21 56 5
25 18 -21 29 -19 23 5 -3 11 -16 23 -29 26 -30 8 -30 21 0 49 17 16 23 29 19
45 -3 12 -2 25 3 29 5 3 14 15 21 26 6 11 17 18 25 16 35 -9 128 -1 157 13 17
9 36 14 42 10 17 -10 28 15 35 79 4 31 10 57 13 57 13 0 43 101 39 130 -3 17
1 31 7 34 19 7 25 54 8 60 -8 3 -12 10 -8 15 11 19 -15 27 -130 35 -33 3 -91
11 -130 20 -38 8 -73 12 -77 10 -4 -3 -20 3 -35 13 -15 10 -47 19 -71 20 -50
2 -104 21 -97 34 7 10 -27 29 -52 29 -10 0 -30 7 -45 14 -15 8 -40 14 -55 14
-16 0 -50 10 -78 22 -84 37 -178 70 -186 64 -5 -3 -30 17 -57 43 -97 94 -118
113 -129 113 -5 0 -23 18 -38 40 -15 22 -34 40 -41 40 -21 0 -17 23 6 37 24
16 62 3 83 -27 8 -12 22 -23 31 -24 9 -1 22 -9 28 -17 17 -20 64 -49 80 -49
17 -1 52 -31 61 -52 4 -12 17 -18 36 -18 35 0 50 17 25 27 -28 10 -64 45 -80
75 -22 42 -18 50 15 34 34 -18 41 -13 41 28 0 20 -10 41 -32 63 -32 33 -32 34
-16 60 23 38 31 38 71 4 34 -31 77 -41 77 -20 0 12 32 9 110 -11 25 -6 65 -15
90 -19 79 -13 134 -34 161 -58 17 -16 29 -21 33 -14 15 23 195 -1 286 -38 81
-34 125 -49 150 -55 14 -3 42 -27 65 -56 22 -29 57 -60 78 -71 21 -11 43 -30
49 -43 5 -13 21 -29 34 -35 14 -6 27 -19 31 -28 3 -10 19 -33 35 -51 15 -18
28 -38 28 -45 0 -24 60 -79 79 -74 20 5 61 -40 61 -66 0 -11 9 -11 45 -3 25 6
45 16 45 23 0 7 7 13 15 13 8 0 15 8 15 19 0 28 68 111 85 105 12 -5 15 3 15
34 0 50 34 132 55 132 9 0 15 9 15 26 0 14 -4 23 -8 20 -4 -2 -9 14 -9 37 -1
23 2 44 8 48 13 8 -2 71 -16 67 -6 -2 -8 -7 -6 -13 8 -21 6 -38 -6 -42 -17 -6
-44 85 -41 142 1 29 -3 50 -10 53 -6 2 -8 10 -5 18 3 9 -1 14 -12 14 -20 0
-54 38 -55 61 0 22 -85 116 -122 135 -16 8 -42 15 -56 14 -46 -3 -48 -1 -76
51 -30 58 -32 71 -11 63 17 -7 21 11 4 22 -6 3 -9 14 -6 24 3 11 -5 28 -19 41
-31 29 -32 59 -1 59 21 1 21 1 4 15 -18 13 -16 55 2 55 4 0 20 31 35 69 21 55
33 71 56 81 17 7 30 14 30 16 0 10 -26 50 -39 60 -12 9 -10 14 12 29 15 9 27
26 27 36 0 11 6 22 14 25 26 10 30 78 8 127 -42 94 -83 106 -207 62 -38 -13
-78 -25 -88 -25 -9 0 -35 -11 -57 -25 -22 -14 -43 -25 -47 -25 -5 0 -28 -18
-53 -40 -25 -22 -55 -43 -68 -46 -12 -4 -27 -15 -33 -26 -15 -29 -60 -20 -77
15 -11 22 -11 31 -1 43 14 17 14 86 -1 113 -7 15 -5 22 12 33 l21 14 -30 45
c-41 59 -153 164 -203 189 -56 28 -162 28 -210 -1 -77 -47 -130 -114 -130
-164 0 -21 -8 -29 -37 -42 -35 -14 -40 -14 -71 3 -73 39 -106 145 -78 254 27
105 136 274 197 305 16 9 29 20 29 25 0 5 11 12 24 16 17 4 25 14 28 35 3 16
1 29 -4 29 -5 0 -18 9 -30 20 -25 23 -54 26 -74 6 -8 -8 -23 -12 -36 -9 -17 5
-20 3 -15 -10 4 -10 0 -20 -9 -25 -9 -5 -21 -20 -28 -33 -6 -13 -18 -24 -26
-24 -8 0 -21 -13 -29 -29 -7 -16 -24 -41 -37 -56 -30 -33 -94 -162 -94 -188 0
-11 -7 -23 -16 -26 -8 -3 -12 -11 -9 -17 4 -5 -1 -19 -10 -29 -11 -12 -16 -29
-12 -46 3 -20 0 -28 -14 -31 -22 -6 -22 -8 -9 -32 8 -16 4 -19 -32 -24 -53 -7
-67 -21 -44 -45 16 -18 15 -20 -8 -36 -14 -8 -31 -13 -39 -10 -15 5 -31 -21
-22 -37 3 -4 19 -6 35 -2 16 3 37 2 47 -2 16 -6 15 -8 -7 -20 -14 -8 -21 -14
-16 -15 17 0 -17 -30 -34 -30 -13 0 -17 -5 -13 -21 3 -11 9 -17 12 -12 8 11
60 38 63 32 30 -49 30 -49 -7 -49 -35 0 -36 -1 -30 -34 8 -40 -20 -76 -58 -76
-13 0 -28 -5 -35 -12 -16 -16 -32 1 -35 38 -2 22 -8 30 -27 32 -22 4 -23 2
-10 -13 13 -15 12 -20 -10 -37 -15 -12 -26 -15 -28 -9 -5 15 -42 14 -42 0 0
-17 -64 -74 -99 -89 -22 -9 -31 -19 -31 -36 0 -28 -8 -30 -24 -9 -9 12 -21 5
-76 -48 -35 -34 -73 -67 -85 -72 -13 -7 -19 -19 -17 -32 2 -12 -6 -40 -18 -62
-11 -23 -17 -41 -13 -41 4 0 -4 -11 -19 -25 -15 -14 -32 -25 -38 -25 -15 0
-13 -30 3 -31 6 0 2 -5 -10 -11 -26 -13 -29 -26 -10 -52 12 -16 10 -22 -10
-42 -21 -21 -23 -31 -19 -85 2 -34 8 -65 13 -70 5 -5 7 -25 5 -44 -3 -26 -9
-35 -23 -35 -21 0 -25 -15 -7 -26 8 -5 6 -10 -8 -14 -20 -7 -26 -31 -11 -41
12 -9 -1 -31 -14 -24 -5 4 -9 0 -9 -8 0 -8 9 -17 21 -20 18 -5 20 -12 18 -66
-2 -58 -1 -63 30 -90 21 -19 28 -30 19 -33 -12 -4 -21 -88 -9 -88 3 0 26 6 51
14 31 9 49 21 58 39 14 28 36 35 48 16 4 -8 9 -7 16 2 7 10 8 8 5 -8 -3 -16 0
-23 9 -23 14 0 18 15 14 59 -2 24 -1 24 24 8 18 -12 24 -13 20 -4 -9 24 14 65
47 81 40 20 39 20 39 -5 0 -16 -4 -19 -20 -14 -14 5 -20 2 -20 -10 0 -8 8 -18
18 -21 9 -3 24 -9 33 -14 20 -10 108 6 128 24 22 20 46 1 54 -42 6 -29 4 -35
-13 -39 -20 -5 -28 -23 -10 -23 5 0 12 -17 16 -37 8 -46 21 -64 40 -56 11 4
12 9 3 19 -13 15 -4 34 17 34 17 0 18 -27 1 -60 -8 -16 -21 -25 -37 -25 -30 0
-39 -25 -11 -32 22 -6 27 -18 11 -28 -6 -3 -10 -12 -10 -19 0 -20 52 -27 78
-10 20 13 22 13 22 -2 0 -9 -9 -18 -20 -21 -21 -6 -27 -37 -10 -48 12 -7 42
13 36 24 -2 3 3 15 11 26 14 18 15 18 9 2 -3 -10 -6 -30 -6 -44 0 -15 -2 -24
-6 -21 -3 3 -20 2 -39 -2 -30 -7 -36 -4 -50 16 -14 22 -18 23 -43 11 -38 -19
-131 -15 -147 6 -11 15 -13 14 -25 -8 -7 -13 -10 -33 -7 -44 3 -12 2 -21 -1
-21 -4 0 -6 -13 -6 -30 2 -43 2 -44 20 -29 13 11 17 11 25 -3 9 -16 54 -14 65
3 3 5 10 9 15 9 6 0 7 -5 3 -12 -23 -36 -4 -99 23 -77 19 17 27 4 8 -14 -19
-20 -19 -27 0 -27 27 0 16 -30 -17 -44 -18 -8 -27 -15 -20 -15 6 -1 12 -8 12
-18 0 -15 -1 -15 -18 0 -21 19 -42 23 -24 5 16 -16 15 -28 -3 -28 -8 0 -15 9
-15 21 0 12 -4 17 -11 13 -6 -3 -8 -17 -5 -30 5 -17 2 -24 -8 -24 -8 0 -16 10
-19 23 -3 19 -5 18 -12 -10 -4 -18 -11 -33 -14 -33 -4 0 -17 -9 -30 -21 l-22
-21 -26 26 c-14 15 -23 32 -20 40 4 9 2 18 -4 22 -13 8 -39 -14 -52 -46 -10
-25 -11 -25 -14 -2 -5 24 -43 32 -43 9 0 -9 -10 -12 -30 -9 -35 5 -38 17 -10
34 11 7 20 20 20 30 0 9 4 18 9 20 4 2 12 13 15 26 9 28 -16 29 -59 1 -16 -10
-37 -22 -45 -26 -8 -4 -20 -13 -26 -22 -6 -8 -18 -12 -27 -8 -9 3 -18 -1 -21
-10 -5 -12 -9 -11 -25 8 -10 13 -16 29 -14 36 7 17 63 43 88 40 13 -1 20 4 21
18 1 18 -5 20 -72 19 -52 -1 -77 -5 -88 -17 -20 -20 -20 -27 -1 -27 13 0 13
-3 3 -20 -7 -11 -14 -16 -16 -10 -5 13 -29 13 -34 0 -1 -5 -14 -11 -28 -12
-19 -2 -24 1 -22 14 2 11 -3 18 -13 18 -12 0 -15 5 -9 23 13 38 5 71 -22 93
-15 12 -24 26 -20 32 3 6 2 13 -4 17 -5 3 -10 -3 -10 -14 0 -23 -16 -29 -22
-9 -3 8 -17 6 -47 -9 -39 -19 -45 -20 -59 -7 -16 17 -16 17 16 33 13 7 22 21
22 35 0 20 -8 26 -45 37 -32 9 -45 19 -45 31 0 10 -4 18 -10 18 -5 0 -10 7
-10 15 0 18 36 20 43 3 3 -7 3 7 1 32 -2 26 -12 52 -23 64 -19 19 -20 19 -46
-12 -30 -36 -45 -35 -37 3 3 18 0 25 -12 25 -9 0 -16 8 -16 20 0 13 -9 22 -26
26 -15 4 -24 12 -22 22 3 15 -39 72 -53 72 -4 0 -12 -14 -19 -31 -8 -19 -18
-28 -27 -25 -8 3 -28 -1 -44 -9 -27 -15 -30 -14 -35 2 -3 10 -10 26 -15 35 -5
10 -9 20 -9 22 0 6 35 41 82 82 42 37 52 67 30 94 -14 16 -24 19 -50 14 -24
-5 -31 -11 -28 -23 4 -12 -8 -22 -46 -38 -27 -13 -54 -21 -58 -18 -4 3 -11 25
-14 50 -8 49 -28 59 -52 28 -13 -17 -13 -17 -14 0 0 9 4 17 9 17 5 0 9 22 8
50 -1 27 -5 50 -9 50 -5 0 -8 -5 -8 -10 0 -6 -11 -15 -25 -22 -19 -8 -28 -8
-40 2 -13 11 -15 8 -15 -23 0 -27 -6 -39 -21 -47 -12 -7 -18 -18 -15 -26 3 -8
2 -14 -3 -14 -12 0 -20 57 -9 68 4 4 10 29 13 56 3 36 11 53 31 68 20 16 23
23 12 29 -10 7 -9 9 5 9 22 0 21 16 -3 60 l-18 35 -7 -30 c-8 -30 -41 -75 -56
-75 -5 0 -6 7 -3 15 4 8 1 15 -4 15 -10 0 -19 16 -52 95 -17 42 -46 304 -38
349 2 10 -3 21 -9 23 -9 3 -13 -6 -13 -25 0 -51 -12 -122 -21 -122 -5 0 -9 6
-9 14 0 7 -9 16 -21 19 -15 4 -19 11 -14 25 3 11 -3 48 -15 81 -11 33 -20 67
-20 75 0 19 -19 31 -30 20 -15 -15 -20 -122 -6 -127 7 -3 10 -20 8 -46 -4 -37
-5 -39 -20 -24 -18 17 -28 4 -18 -23 4 -11 13 -13 27 -9 19 6 21 4 15 -19 -4
-15 -2 -26 4 -26 5 0 7 -13 3 -30 -6 -34 33 -120 54 -120 16 0 17 -26 3 -35
-8 -5 -7 -11 0 -21 7 -7 10 -19 8 -26 -5 -12 -38 41 -38 59 0 5 -24 54 -53
110 -30 56 -71 145 -91 200 -21 54 -54 132 -73 173 -19 41 -38 84 -43 95 -4
11 -17 41 -29 67 -71 161 -184 569 -165 599 3 5 25 9 50 9 25 0 58 7 75 16 17
8 39 12 50 9 18 -6 20 -4 15 13 -4 11 0 53 8 93 27 138 28 155 12 169 -9 7
-16 20 -16 29 0 9 -9 22 -21 29 -22 14 -34 9 -70 -30 -20 -22 -29 -23 -29 -3
0 22 -33 18 -48 -5 -8 -14 -11 -56 -7 -147 4 -113 3 -125 -9 -103 -26 47 -50
360 -28 360 12 0 42 -34 42 -47 0 -6 11 -13 25 -15 21 -5 23 -3 13 10 -10 12
-7 19 15 38 16 13 39 24 51 24 13 0 29 6 35 14 6 8 21 16 32 19 16 4 23 -1 32
-22 7 -17 18 -26 26 -23 11 4 12 -2 7 -24 -4 -16 -8 -31 -9 -34 -1 -3 5 -22
12 -42 8 -26 19 -38 31 -38 16 0 17 -4 8 -37 -5 -20 -8 -51 -5 -68 6 -39 -1
-52 -34 -60 -24 -6 -26 -10 -19 -40 4 -18 11 -38 14 -44 13 -20 25 -1 19 29
-4 23 -2 30 10 30 8 0 17 -6 19 -12 4 -10 10 -10 33 0 26 12 27 16 21 55 -4
23 -14 49 -22 59 -9 9 -13 25 -10 36 6 18 -1 43 -27 100 -9 18 -8 25 3 32 11
7 12 14 2 35 -18 39 -15 60 13 93 14 17 25 38 25 49 0 20 18 43 33 43 5 0 6
-16 2 -36 -5 -28 -3 -35 7 -32 7 3 14 23 16 45 3 34 0 42 -17 48 -25 8 -28 35
-5 35 13 0 15 7 11 30 -4 16 -2 32 3 35 25 15 -2 47 -42 50 -12 0 -22 15 -34
50 -11 34 -11 35 15 41 44 11 71 33 71 59 0 16 -6 25 -15 25 -8 0 -15 -4 -15
-10 0 -5 -4 -10 -10 -10 -5 0 -10 9 -10 20 0 13 7 20 19 20 22 0 35 46 15 54
-7 3 -16 1 -20 -5 -4 -7 -10 -6 -19 1 -17 14 -30 -6 -26 -42 2 -27 -13 -46
-24 -28 -10 16 -52 12 -59 -6 -11 -28 -6 -57 12 -77 17 -19 16 -19 -15 -12
-30 6 -33 4 -33 -17 0 -17 -3 -19 -9 -9 -5 7 -14 11 -19 7 -13 -8 -42 44 -42
75 0 39 23 100 42 110 10 5 18 16 18 23 0 8 7 16 15 19 8 4 23 23 34 44 11 21
42 58 70 83 28 24 51 50 51 57 0 7 4 13 8 13 4 0 8 12 7 28 0 34 34 43 52 13
10 -17 9 -20 -14 -26 -20 -5 -24 -11 -20 -30 2 -14 0 -25 -4 -25 -10 0 -12
-133 -2 -143 3 -4 15 0 25 10 17 15 18 15 18 -5 0 -11 -6 -23 -12 -25 -10 -4
-10 -6 0 -6 6 -1 12 -12 12 -26 0 -14 4 -25 9 -25 15 0 29 58 36 149 6 84 16
111 40 111 10 0 23 24 55 105 5 11 16 45 26 75 28 92 36 110 46 110 6 0 7 11
4 24 -4 16 -1 28 7 33 8 4 17 19 20 33 23 100 30 120 43 131 8 6 14 16 14 21
0 5 12 34 28 65 40 82 46 93 53 93 4 0 5 9 2 20 -3 11 -1 26 5 33 5 6 13 27
17 44 3 18 11 36 17 39 15 10 58 111 58 138 0 22 53 107 72 114 4 2 8 9 8 15
0 11 15 31 98 137 50 63 90 97 134 112 18 6 51 26 73 43 23 17 70 46 106 64
35 18 71 40 80 47 8 8 20 14 26 14 6 0 13 7 17 15 3 8 23 18 45 21 23 4 46 12
52 20 8 10 15 10 28 2 13 -8 27 -5 58 11 23 11 44 25 48 31 10 16 67 11 88 -7
19 -18 20 -17 15 15 -4 29 -1 35 21 44 27 10 85 67 95 93 6 18 26 20 26 3 0
-6 9 -3 20 7 11 10 20 27 20 37 0 12 9 22 21 25 18 5 20 11 15 44 -7 41 10 64
26 35 5 -9 17 -16 27 -16 11 0 21 -7 25 -15 8 -21 23 -19 29 4 5 21 80 35 108
20 12 -6 19 -4 23 6 7 20 46 19 46 0 0 -17 16 -20 25 -5 10 16 -14 40 -41 40
-40 0 -36 18 6 31 39 12 54 29 26 29 -7 0 -16 11 -18 24 -5 23 -2 24 23 19 22
-4 29 -2 29 11 0 9 -6 16 -12 17 -7 0 0 5 16 9 34 11 59 -8 50 -37 -4 -11 -3
-14 3 -7 4 6 18 17 31 23 22 12 23 13 6 26 -16 11 -16 15 -4 30 13 16 14 16
21 -2 7 -17 7 -17 15 2 12 32 25 35 56 12 40 -29 37 -47 -7 -40 -19 3 -35 2
-35 -3 0 -8 20 -9 108 -5 30 1 32 3 22 22 -6 11 -26 29 -43 39 l-32 20 28 0
c15 0 27 -4 27 -10 0 -5 18 -19 40 -30 48 -25 51 -20 47 65 l-2 60 38 2 c34 2
37 1 27 -12 -7 -8 -19 -15 -26 -15 -16 0 -19 -36 -4 -45 6 -4 8 -11 4 -16 -8
-14 33 -52 47 -43 6 3 8 12 5 20 -3 8 1 14 9 14 19 0 19 14 0 30 -12 10 -19
10 -27 2 -17 -17 -28 -15 -28 6 0 27 62 64 94 56 24 -6 37 -24 17 -24 -5 0
-11 -9 -14 -20 -6 -24 1 -25 27 -5 27 20 38 19 66 -7 13 -12 37 -23 54 -25 50
-5 89 -18 94 -31 5 -17 -24 -15 -42 4 -13 12 -23 13 -53 5 -29 -8 -40 -7 -53
4 -9 8 -20 12 -25 8 -4 -5 -5 -3 -1 4 3 6 2 14 -3 17 -16 11 -21 -10 -8 -37
10 -21 20 -26 62 -30 27 -3 64 -8 81 -12 26 -6 33 -3 48 19 9 15 14 30 12 35
-3 5 8 11 24 13 37 5 37 3 4 -25 -33 -29 -24 -53 24 -61 42 -7 106 -6 80 1
-22 6 -24 41 -3 49 12 5 13 10 4 20 -9 11 -7 14 11 14 16 0 20 -4 16 -15 -4
-11 2 -15 25 -15 29 0 31 -2 25 -27 -5 -16 -3 -29 5 -34 10 -6 10 -11 0 -23
-8 -9 -19 -16 -26 -16 -7 0 -18 -6 -24 -14 -10 -12 -8 -17 7 -25 20 -10 29
-71 11 -71 -5 0 -9 -5 -9 -11 0 -8 5 -8 15 1 8 7 15 21 15 32 0 12 9 22 21 25
12 3 18 11 15 19 -7 19 1 17 22 -4 15 -15 16 -23 8 -41 -8 -18 -6 -25 7 -32
27 -15 20 -26 -13 -21 -23 3 -30 0 -30 -12 0 -26 33 -56 62 -56 30 0 38 -14
14 -23 -25 -10 -71 8 -81 31 -11 25 -21 28 -28 10 -2 -7 -6 -17 -8 -22 -2 -5
6 -10 18 -11 32 -2 65 -34 57 -57 -3 -10 -2 -18 3 -18 14 0 93 -75 93 -88 0
-6 5 -12 10 -12 6 0 10 4 10 9 0 5 3 17 7 27 5 13 2 16 -8 12 -10 -4 -14 3
-15 28 -1 35 25 50 28 17 0 -10 2 -24 2 -32 2 -21 27 -26 38 -7 15 26 26 18
24 -16 -3 -37 12 -68 32 -68 9 0 11 -7 7 -20 -5 -15 -2 -20 14 -20 11 0 24 -8
30 -17 5 -10 13 -14 17 -10 4 4 2 13 -4 19 -7 7 -12 15 -12 19 0 6 64 18 118
22 12 1 22 6 22 11 0 15 33 35 58 36 13 0 22 6 22 15 0 8 9 15 20 15 11 0 20
7 20 15 0 18 26 20 36 3 5 -7 11 -3 17 13 l10 24 4 -22 c5 -26 18 -30 27 -8 7
19 36 19 64 -1 20 -14 22 -14 22 1 0 9 5 15 12 13 23 -8 19 -28 -7 -40 l-26
-12 26 -24 c25 -23 26 -30 7 -81 -3 -9 -1 -12 6 -7 8 4 12 0 12 -11 0 -10 3
-27 6 -39 3 -12 -1 -27 -9 -36 -13 -12 -13 -19 -3 -39 6 -13 18 -25 26 -25 8
-1 23 -2 33 -3 10 -1 17 -9 17 -21 0 -17 5 -19 25 -14 21 5 25 3 25 -15 0 -16
6 -21 26 -21 25 0 26 -2 20 -35 -6 -28 -4 -35 9 -35 12 0 15 6 10 20 -7 22 9
27 35 10 13 -8 12 -10 -2 -10 -10 0 -18 -4 -18 -10 0 -5 5 -10 11 -10 6 0 9
-7 6 -15 -9 -22 13 -29 28 -9 11 15 17 17 36 7 40 -19 58 -23 64 -13 3 5 -4
14 -15 20 -32 17 -24 30 19 30 34 0 38 3 34 20 -4 16 0 20 21 20 17 0 26 5 26
15 0 11 8 15 28 12 33 -4 36 -31 4 -35 -27 -4 -24 -27 3 -27 10 0 21 -10 26
-23 5 -12 13 -22 19 -22 12 0 12 2 0 34 -9 24 -8 26 20 26 17 0 30 -4 30 -10
0 -5 9 -10 20 -10 23 0 26 10 8 28 -16 16 -2 28 16 13 10 -8 16 -9 21 -1 9 15
41 12 59 -6 9 -8 13 -21 9 -27 -5 -8 -8 -8 -11 1 -2 7 -10 12 -17 12 -18 0 -9
-60 12 -80 13 -13 16 -13 29 6 l15 22 27 -25 c15 -13 34 -31 43 -39 11 -10 19
-12 23 -5 4 5 1 13 -7 18 -21 13 -36 57 -25 76 11 21 28 22 28 2 0 -8 9 -19
19 -25 12 -6 17 -17 14 -28 -4 -15 1 -18 30 -14 31 3 36 0 51 -29 9 -17 16
-38 16 -46 0 -10 5 -11 19 -4 23 13 32 4 25 -24 -3 -13 -1 -26 5 -29 6 -4 11
-12 11 -18 0 -7 -5 -6 -15 2 -14 12 -35 6 -35 -10 0 -5 19 -15 43 -21 55 -16
67 -26 67 -55 0 -13 5 -24 10 -24 6 0 10 -7 10 -15 0 -8 9 -19 20 -25 11 -6
19 -14 16 -18 -2 -4 11 -18 30 -32 18 -14 34 -33 34 -42 0 -9 5 -20 10 -23 6
-3 10 -15 10 -26 0 -10 6 -19 14 -19 8 0 18 -9 21 -20 8 -26 33 -26 55 0 31
36 110 4 110 -44 1 -26 33 -66 53 -66 8 0 17 -7 21 -15 3 -8 10 -15 16 -15 6
0 19 -7 28 -16 15 -15 12 -16 -29 -9 -24 4 -48 8 -54 9 -10 1 -39 35 -41 49
-1 4 -2 10 -3 14 0 3 -10 -2 -21 -12 -11 -10 -20 -13 -20 -7 0 5 -9 8 -20 5
l-20 -5 20 -33 c26 -42 27 -64 1 -41 -11 10 -24 15 -29 12 -6 -3 -14 6 -20 22
-12 34 -59 63 -71 43 -6 -9 -19 -11 -40 -6 -18 4 -31 3 -31 -3 0 -9 -18 -13
-105 -27 -16 -3 -56 -6 -87 -7 -37 -1 -58 -7 -58 -14 0 -20 -30 -24 -61 -8
-25 13 -33 13 -46 2 -13 -10 -17 -10 -20 0 -3 6 -9 12 -14 12 -4 0 -6 -7 -2
-16 5 -14 1 -16 -20 -12 -15 3 -27 1 -27 -5 0 -5 -8 -7 -19 -4 -18 4 -51 -23
-51 -43 0 -5 -10 -8 -22 -6 -15 2 -24 11 -26 26 -4 22 -2 23 14 10 16 -14 17
-13 11 10 -4 14 -7 28 -7 33 0 12 -21 8 -36 -8 -9 -8 -23 -15 -31 -15 -15 0
-15 2 -1 18 9 9 19 27 22 40 6 19 4 22 -18 22 -14 0 -26 6 -26 13 0 6 -11 13
-24 13 -18 1 -22 -2 -19 -16 4 -14 0 -17 -20 -13 -14 3 -33 0 -43 -5 -14 -8
-21 -6 -30 6 -11 15 -16 15 -69 -2 -40 -12 -60 -14 -69 -7 -9 7 -16 7 -23 0
-12 -12 -33 -4 -33 12 0 5 7 9 15 9 8 0 15 5 15 11 0 7 -11 9 -30 6 -16 -4
-32 -2 -35 3 -3 5 -11 7 -18 4 -8 -3 -12 -26 -12 -67 l0 -62 -37 2 c-21 1 -42
-5 -49 -13 -6 -8 -20 -14 -30 -14 -12 0 -21 -10 -25 -25 -8 -31 -29 -27 -28 4
0 12 -14 38 -33 57 -18 20 -33 39 -33 43 0 4 -11 14 -25 21 -25 13 -33 35 -16
42 13 5 -6 48 -22 48 -17 0 -42 54 -42 92 0 15 -4 27 -8 27 -10 -1 -66 60 -65
70 0 3 -3 16 -7 29 -8 25 -27 29 -45 8 -8 -11 -18 -12 -35 -6 -13 5 -25 7 -28
4 -2 -2 -10 2 -17 11 -15 18 -47 20 -52 3 -6 -18 -28 1 -28 25 -1 22 -1 22
-15 3 -8 -11 -15 -28 -15 -38 0 -41 -59 -11 -74 38 -4 15 -18 24 -39 28 -27 5
-35 13 -47 48 -10 30 -24 47 -45 57 -22 11 -26 16 -13 19 33 7 29 33 -14 77
-24 23 -53 55 -66 70 -16 19 -27 25 -40 20 -9 -4 -32 -9 -50 -11 -30 -4 -32
-3 -26 20 5 23 4 24 -40 21 -53 -4 -72 12 -27 21 29 6 44 24 20 24 -6 0 -9 7
-6 14 4 10 1 13 -9 9 -7 -3 -14 -9 -14 -13 0 -14 -84 2 -107 20 -16 12 -19 20
-11 28 15 15 -8 42 -36 42 -18 0 -19 -2 -6 -11 13 -9 13 -10 -2 -6 -17 6 -38
-11 -35 -28 3 -16 -30 -17 -60 -1 l-28 15 28 1 c16 0 30 7 34 16 3 9 13 14 24
11 22 -6 31 5 23 27 -5 12 -10 13 -30 4 -13 -6 -24 -15 -24 -20 0 -4 -36 -8
-79 -8 -66 0 -82 3 -93 18 -11 16 -25 19 -93 17 -44 -2 -86 2 -93 8 -7 5 -16
7 -19 3 -4 -4 -1 -11 7 -16 12 -8 13 -11 2 -22 -11 -11 -15 -10 -23 5 -6 9
-21 17 -34 17 -14 0 -25 5 -25 10 0 16 -27 11 -34 -6 -5 -13 -15 -15 -46 -10
-29 5 -47 1 -74 -15 -20 -11 -41 -19 -48 -16 -7 2 -33 -2 -58 -9 -54 -16 -90
-18 -91 -4 -1 6 -2 16 -3 23 0 6 -11 13 -22 15 -15 2 -27 -7 -42 -31 -16 -28
-29 -36 -61 -42 -22 -4 -43 -11 -47 -16 -3 -5 -17 -9 -32 -8 -34 2 -105 -28
-97 -41 3 -6 -7 -15 -22 -22 -15 -6 -51 -22 -80 -35 -28 -12 -60 -23 -71 -23
-11 0 -26 -7 -33 -16 -7 -9 -23 -20 -36 -25 -13 -5 -23 -15 -23 -24 0 -11 5
-13 25 -5 21 8 25 7 25 -9 0 -13 6 -17 23 -14 27 5 54 -31 38 -51 -7 -9 -7
-16 1 -24 9 -9 9 -12 0 -12 -19 0 -14 -28 6 -34 9 -2 36 -7 59 -11 37 -6 67
-23 136 -81 14 -11 22 -12 31 -4 15 12 42 -12 32 -28 -3 -5 -1 -23 3 -40 7
-24 6 -32 -6 -36 -8 -3 -12 -10 -9 -14 3 -5 -14 -15 -37 -22 -23 -8 -49 -21
-57 -31 -8 -9 -35 -30 -59 -47 -44 -32 -130 -137 -131 -159 0 -7 -7 -13 -16
-13 -12 0 -14 -7 -9 -28 5 -24 2 -30 -18 -39 -14 -7 -31 -25 -38 -42 -7 -16
-17 -27 -21 -25 -15 9 -8 -43 7 -56 8 -7 15 -20 15 -29 1 -39 22 -47 112 -46
81 2 88 0 95 -19 4 -12 7 -25 8 -31 0 -5 9 -11 20 -14 11 -2 23 -8 27 -14 9
-15 31 42 23 61 -3 8 -12 11 -20 8 -13 -5 -14 -2 -4 15 10 19 17 21 60 15 66
-9 79 -15 79 -36 0 -10 9 -20 21 -23 17 -5 18 -8 8 -25 -13 -21 -5 -57 11 -47
20 12 50 -6 50 -29 0 -32 23 -49 57 -42 17 3 35 0 47 -9 15 -12 17 -22 11 -60
-6 -45 -8 -46 -33 -40 -15 3 -28 11 -30 16 -2 5 -9 9 -16 9 -7 0 -20 6 -30 13
-16 12 -17 17 -6 38 12 22 12 23 -3 10 -24 -19 -110 -24 -103 -6 3 9 0 12 -10
8 -7 -3 -14 -13 -14 -23 0 -10 -9 -20 -20 -23 -17 -4 -20 -10 -14 -34 4 -15
18 -36 31 -46 13 -10 21 -22 18 -27 -3 -4 3 -6 13 -3 12 3 22 -4 30 -21 7 -17
20 -26 34 -26 13 0 34 -7 48 -14 46 -27 151 -76 161 -76 5 0 9 -5 9 -11 0 -6
6 -9 12 -7 7 3 19 -1 26 -9 7 -7 27 -13 43 -13 16 0 29 -4 29 -8 0 -4 16 -14
35 -21 19 -7 35 -19 35 -27 0 -8 4 -13 9 -11 5 1 26 -16 45 -37 25 -27 45 -39
65 -40 26 -1 30 -5 35 -39 6 -33 9 -37 26 -32 11 4 40 -1 65 -10 42 -16 45
-16 62 0 9 10 19 13 20 8 2 -6 19 -7 42 -3 21 4 48 3 62 -2 19 -7 27 -5 42 16
16 23 26 26 79 26 54 0 126 17 185 43 28 12 79 -5 75 -25 -1 -10 6 -15 22 -15
19 0 22 4 18 20 -4 17 -1 19 22 15 14 -3 29 -1 32 3 3 5 18 9 35 9 16 0 29 5
29 10 0 6 9 10 20 10 12 0 24 9 29 23 5 12 27 32 50 42 28 14 41 26 41 41 0
11 8 29 18 40 10 11 33 49 51 86 36 72 65 103 124 134 21 10 43 27 48 37 5 9
17 17 26 17 9 0 30 4 47 9 77 24 126 28 152 15 14 -8 34 -14 44 -14 9 0 29
-12 44 -26 26 -27 34 -54 16 -54 -28 0 -4 -49 53 -110 8 -8 17 -31 20 -50 2
-19 11 -60 20 -90 8 -30 17 -89 21 -130 7 -94 51 -292 77 -344 10 -22 19 -47
19 -56 0 -18 60 -80 78 -80 6 0 18 -12 26 -27 34 -67 178 -179 212 -166 6 2
16 -3 23 -10 9 -12 22 -11 82 5 45 13 74 16 78 10 3 -5 42 -13 86 -17 44 -3
101 -13 126 -21 46 -15 91 -11 116 8 7 5 17 7 23 3 18 -11 11 20 -10 43 -11
12 -20 24 -20 27 0 3 -10 19 -22 36 -23 30 -23 31 -4 45 22 16 56 19 56 5 0
-17 38 -22 59 -9 16 10 27 10 55 0 37 -14 70 -5 78 20 3 8 12 9 36 0 33 -11
49 -2 36 20 -5 8 -2 9 9 5 9 -3 19 -2 22 3 3 6 16 5 31 0 35 -14 44 -12 44 4
0 11 11 14 46 10 42 -4 48 -1 80 32 38 42 40 47 19 64 -20 16 -19 30 1 30 15
0 16 10 9 83 -4 45 -7 92 -7 104 1 15 -3 21 -12 17 -11 -4 -16 8 -21 51 -4 31
-10 53 -13 50 -3 -3 -13 7 -23 21 -16 25 -16 27 2 45 20 20 26 59 8 59 -5 0
-8 4 -5 9 3 5 29 9 57 9 42 0 55 4 68 21 16 21 18 21 56 6 25 -11 34 -19 26
-24 -10 -6 -9 -12 4 -25 18 -17 95 -23 95 -6 0 6 -7 10 -15 10 -8 0 -12 6 -9
14 3 8 13 12 22 10 9 -2 25 2 35 10 16 12 16 17 6 35 -19 30 -3 38 29 14 15
-11 30 -35 35 -56 5 -21 13 -37 18 -37 15 0 10 -73 -11 -155 -23 -91 -22 -85
-11 -85 4 0 21 28 36 63 68 150 126 265 153 303 17 22 37 55 46 72 9 17 40 59
69 94 30 35 62 79 72 98 10 19 41 71 70 115 121 188 138 217 161 283 13 38 44
108 69 156 25 48 45 95 45 104 0 9 12 26 27 38 26 21 28 27 28 103 0 60 4 85
16 97 15 14 18 13 37 -10 11 -14 27 -26 35 -26 9 0 19 -4 22 -10 10 -15 25
-12 25 6 0 11 6 13 20 9 17 -5 19 -1 18 38 -1 51 7 68 26 61 7 -3 18 1 24 8
17 21 44 108 38 124 -3 7 8 27 24 43 35 35 37 41 10 41 -21 0 -27 15 -10 25 6
4 8 21 4 39 -4 26 -2 35 11 40 9 3 21 4 25 1 5 -3 11 -1 15 5 3 6 -4 10 -17
10 -13 0 -33 3 -45 6 -17 5 -23 2 -23 -10 0 -9 -5 -16 -11 -16 -6 0 -9 17 -7
43 2 32 7 42 20 42 30 0 38 18 26 57 -11 35 -10 38 27 72 21 20 46 36 56 36
11 0 19 3 19 6 0 10 -28 34 -39 34 -16 0 -13 21 4 40 26 28 31 87 10 110 -24
26 -38 25 -30 -1 5 -13 3 -19 -3 -15 -12 7 -13 74 -1 82 5 3 9 15 9 27 0 16
16 32 57 57 63 39 103 77 103 99 0 10 -7 8 -25 -9 -20 -19 -27 -21 -40 -10
-13 10 -18 8 -35 -13 -30 -37 -103 -70 -140 -62 -16 4 -30 10 -30 14 0 12 35
41 48 41 7 0 12 6 12 14 0 17 55 76 85 91 12 7 23 26 27 50 4 22 10 52 14 68
4 17 2 27 -5 27 -6 0 -16 10 -20 23 -9 21 -9 21 -16 2 -21 -62 -24 -65 -53
-59 -19 4 -32 1 -41 -10 -8 -9 -20 -16 -27 -16 -9 0 -14 -11 -14 -30 0 -16 5
-30 11 -30 6 0 8 9 4 20 -5 14 -1 22 12 26 10 3 28 10 40 16 31 15 48 5 48
-29 0 -17 -3 -29 -7 -27 -9 6 -48 -32 -48 -47 0 -5 -4 -8 -9 -4 -6 3 -14 -1
-18 -10 -7 -13 -13 -13 -35 -3 -22 11 -25 18 -26 64 0 28 -6 62 -14 74 -23 39
-55 70 -72 70 -13 0 -16 5 -11 21 5 14 2 25 -6 30 -11 8 -9 13 10 29 13 11 21
26 18 35 -5 12 -10 12 -33 0 -35 -18 -51 -10 -66 31 -11 32 -13 33 -55 27 -41
-5 -58 6 -33 22 6 3 7 17 4 31 -5 18 1 32 24 58 26 30 29 39 24 84 -4 43 -1
55 23 86 27 35 27 36 6 36 -16 0 -23 8 -27 30 -8 35 -15 37 -32 10 -17 -28
-31 -25 -46 12 -17 39 -11 58 16 55 12 -1 23 4 25 11 3 6 -2 12 -10 12 -10 0
-21 21 -32 58 -9 31 -22 67 -27 79 -6 12 -8 31 -5 43 4 16 -1 24 -18 32 -23
10 -45 46 -45 73 0 8 -9 19 -21 26 -20 10 -21 9 -14 -23 3 -18 10 -44 15 -58
12 -35 19 -130 9 -130 -4 0 -15 10 -23 22 -15 21 -16 21 -29 4 -15 -20 -39
-14 -31 8 3 7 -2 18 -10 25 -7 6 -12 19 -10 29 6 26 -12 50 -27 35 -6 -6 -18
-9 -25 -6 -8 3 -14 0 -14 -6 0 -6 -7 -11 -15 -11 -8 0 -15 -6 -15 -12 0 -7 -5
-5 -11 5 -9 15 -7 23 8 40 21 23 24 74 5 86 -6 3 -19 27 -30 51 -11 25 -31 58
-46 73 -14 15 -26 32 -26 38 0 5 -12 9 -27 9 -18 1 -35 10 -46 25 -21 29 -14
49 14 42 22 -6 25 13 7 32 -11 10 -10 14 5 22 24 14 21 28 -8 39 -14 5 -25 16
-25 25 0 8 -4 15 -9 15 -18 0 -21 33 -5 57 16 25 15 26 -36 73 -28 26 -76 60
-107 76 -30 16 -63 39 -73 52 -10 12 -22 22 -27 22 -12 0 -33 -45 -33 -70 0
-39 -20 -29 -34 18 -30 102 -85 156 -143 139 -47 -14 -121 0 -128 24 -4 10
-18 22 -33 25 -15 3 -35 8 -44 11 -10 2 -18 -1 -18 -7 0 -6 -5 -8 -11 -5 -6 5
-4 11 7 19 15 11 14 14 -10 33 -14 12 -26 25 -26 30 0 5 -33 35 -72 66 -40 32
-86 74 -102 92 -18 22 -38 35 -53 35 -25 0 -29 10 -12 27 9 9 0 15 -36 24 -35
9 -44 14 -31 19 15 5 15 8 4 17 -7 6 -23 14 -35 17 -38 12 -55 34 -43 57 9 16
5 25 -22 50 -18 16 -54 39 -80 51 -26 11 -54 28 -64 39 -9 10 -22 19 -28 19
-28 0 -97 34 -92 46 5 13 -14 24 -43 24 -10 0 -32 7 -48 15 -17 9 -67 18 -112
22 -45 3 -81 10 -81 15 0 5 -13 22 -29 38 -21 21 -42 31 -80 36 -28 4 -51 10
-51 15 0 5 -6 9 -14 9 -8 0 -36 17 -63 38 -75 60 -91 66 -171 65 -73 -2 -74
-1 -68 22 4 17 0 29 -19 43 -21 17 -30 18 -64 9 -33 -9 -43 -8 -58 4 -31 27
-93 59 -113 59 -10 0 -21 4 -24 9 -4 5 -50 12 -104 15 -53 4 -113 8 -132 10
-19 3 -45 1 -56 -4z m-328 -145 c6 -16 -62 -100 -81 -100 -20 0 -5 79 18 97
27 22 56 23 63 3z m810 -34 c-7 -11 -66 -16 -66 -5 0 3 8 16 18 29 16 23 18
23 36 5 10 -10 15 -23 12 -29z m-609 -21 c0 -51 -18 -68 -49 -46 -12 9 -30 16
-39 16 -20 0 -33 26 -18 36 6 3 26 3 44 0 28 -6 36 -3 45 14 15 28 17 26 17
-20z m-867 -50 c0 -10 -58 -50 -72 -50 -19 0 -6 41 15 50 30 12 57 12 57 0z
m1300 0 c0 -5 -4 -10 -10 -10 -5 0 -10 5 -10 10 0 6 5 10 10 10 6 0 10 -4 10
-10z m-155 -30 c-8 -26 6 -26 28 1 10 11 21 18 24 15 3 -3 -15 -25 -40 -50
l-45 -45 -5 32 c-3 21 1 38 11 50 20 23 35 22 27 -3z m675 -60 c0 -5 -7 -10
-15 -10 -8 0 -15 5 -15 10 0 6 7 10 15 10 8 0 15 -4 15 -10z m297 -87 c2 -6
-12 -13 -32 -15 -40 -5 -45 2 -12 18 26 13 39 12 44 -3z m-1060 -83 c-1 -33
-5 -60 -9 -61 -5 -1 -20 -2 -36 -3 l-27 -1 30 62 c16 35 33 63 37 63 4 0 6
-27 5 -60z m623 53 c0 -10 -52 -63 -62 -63 -11 0 6 33 28 54 16 17 34 21 34 9z
m-579 -60 c-9 -16 -10 -16 -11 4 0 12 3 30 7 40 7 16 8 16 11 -4 2 -12 -1 -30
-7 -40z m389 23 c0 -2 -7 -6 -15 -10 -8 -3 -15 -1 -15 4 0 6 7 10 15 10 8 0
15 -2 15 -4z m580 -30 c-22 -21 -84 -32 -78 -15 3 8 16 14 31 14 14 0 29 3 33
8 4 4 12 7 18 7 6 0 4 -6 -4 -14z m-870 -5 c0 -5 -15 -20 -32 -32 -29 -20 -31
-21 -18 -4 14 20 41 45 47 45 2 0 3 -4 3 -9z m740 -15 c0 -3 -4 -8 -10 -11 -5
-3 -10 -1 -10 4 0 6 5 11 10 11 6 0 10 -2 10 -4z m-350 -34 c0 -10 -22 -32
-32 -32 -13 0 -9 28 5 33 19 8 27 8 27 -1z m723 -24 c9 -5 21 -7 26 -4 5 3 12
-10 15 -28 4 -19 12 -37 19 -39 7 -3 4 -6 -7 -6 -21 -1 -96 39 -96 51 0 4 -12
8 -27 8 -26 1 -63 20 -63 33 0 8 112 -4 133 -15z m222 -8 c3 -5 2 -10 -4 -10
-5 0 -13 5 -16 10 -3 6 -2 10 4 10 5 0 13 -4 16 -10z m-733 -63 c-12 -13 -22
-29 -22 -35 0 -7 -4 -12 -10 -12 -15 0 -12 16 5 30 8 7 15 19 15 26 0 8 8 14
17 14 14 0 13 -3 -5 -23z m-2482 -2 c7 -9 11 -18 8 -20 -9 -10 -38 7 -38 21 0
18 14 18 30 -1z m3132 -24 c27 -29 33 -41 22 -45 -21 -8 -46 5 -40 20 8 21 -4
45 -28 54 -13 5 -15 9 -6 9 8 1 32 -17 52 -38z m-102 -51 c8 -5 11 -12 8 -16
-10 -9 -58 4 -58 16 0 13 30 13 50 0z m-157 -27 c-7 -2 -19 -2 -25 0 -7 3 -2
5 12 5 14 0 19 -2 13 -5z m322 -13 c3 -5 2 -10 -4 -10 -5 0 -13 5 -16 10 -3 6
-2 10 4 10 5 0 13 -4 16 -10z m-785 -19 c0 -13 -51 -61 -66 -61 -22 0 -16 16
17 44 31 27 49 33 49 17z m475 -20 c8 -14 -5 -19 -66 -27 -60 -7 -61 1 -2 21
46 17 60 18 68 6z m398 -48 c-7 -2 -19 -2 -25 0 -7 3 -2 5 12 5 14 0 19 -2 13
-5z m-1103 -17 c0 -2 -7 -7 -16 -10 -8 -3 -12 -2 -9 4 6 10 25 14 25 6z m230
-26 c-8 -5 -19 -10 -25 -10 -5 0 -3 5 5 10 8 5 20 10 25 10 6 0 3 -5 -5 -10z
m904 -19 c13 -5 16 -10 8 -15 -6 -4 -24 0 -39 8 -23 13 -24 15 -8 15 11 0 29
-4 39 -8z m-24 -30 c0 -9 -75 -31 -104 -31 -9 0 -13 6 -10 14 3 9 23 17 47 19
23 2 48 4 55 5 6 1 12 -2 12 -7z m159 -56 c-13 -13 -28 -25 -33 -25 -6 0 3 13
19 30 16 16 31 28 33 25 3 -2 -6 -16 -19 -30z m-201 -21 c2 -1 -4 -13 -14 -26
-14 -19 -27 -24 -58 -23 -42 1 -44 4 -31 42 6 20 12 22 54 16 25 -3 48 -7 49
-9z m-3699 -13 c21 -13 -3 -22 -40 -14 -33 7 -33 7 -9 14 35 10 33 10 49 0z
m2929 2 c-10 -2 -26 -2 -35 0 -10 3 -2 5 17 5 19 0 27 -2 18 -5z m1062 -68
c10 -12 6 -13 -27 -8 -52 8 -66 23 -21 23 19 0 41 -7 48 -15z m-385 -15 c-3
-5 -11 -10 -16 -10 -6 0 -7 5 -4 10 3 6 11 10 16 10 6 0 7 -4 4 -10z m-3995
-14 c0 -11 -19 -15 -25 -6 -3 5 1 10 9 10 9 0 16 -2 16 -4z m3480 -15 c0 -12
-59 -35 -68 -27 -4 4 2 14 12 22 22 16 56 19 56 5z m370 -6 c0 -7 8 -19 18
-24 15 -9 15 -12 2 -21 -8 -5 -22 -10 -30 -10 -12 1 -12 3 2 14 26 19 11 26
-20 10 -34 -18 -48 -18 -56 1 -6 18 30 45 61 45 13 0 23 -6 23 -15z m-3640 -5
c0 -5 -9 -10 -21 -10 -11 0 -17 5 -14 10 3 6 13 10 21 10 8 0 14 -4 14 -10z
m3513 -27 c-7 -3 -13 -11 -13 -19 0 -10 -12 -14 -42 -14 l-43 0 50 24 c28 13
52 21 55 18 3 -3 -1 -7 -7 -9z m833 8 c-3 -5 -15 -7 -26 -4 -28 7 -25 13 6 13
14 0 23 -4 20 -9z m-1196 -23 c-32 -12 -51 -3 -20 10 14 5 29 7 34 4 5 -3 -1
-9 -14 -14z m627 -8 c-20 -29 -56 -54 -65 -45 -4 4 10 22 31 42 41 37 59 39
34 3z m-4026 -10 c5 0 9 -6 9 -14 0 -14 -77 -32 -89 -20 -10 9 41 45 56 39 8
-3 19 -5 24 -5z m3599 -6 c0 -13 -21 -44 -30 -44 -14 0 -12 24 2 38 13 13 28
16 28 6z m-62 -11 c-10 -2 -26 -2 -35 0 -10 3 -2 5 17 5 19 0 27 -2 18 -5z
m342 -28 c-7 -9 -26 -25 -42 -36 -23 -17 -32 -18 -43 -9 -23 19 -18 26 33 43
60 20 67 20 52 2z m708 7 c7 -5 -9 -9 -38 -9 -28 0 -53 3 -56 8 -6 11 76 12
94 1z m-4633 -23 c10 -15 -1 -23 -20 -15 -9 3 -13 10 -10 16 8 13 22 13 30 -1z
m4408 -9 c15 0 27 -4 27 -10 0 -15 -90 -11 -130 6 l-35 14 55 -5 c30 -3 67 -5
83 -5z m-3750 -55 c-3 -9 -8 -14 -10 -11 -3 3 -2 9 2 15 9 16 15 13 8 -4z
m3107 11 c0 -3 -4 -8 -10 -11 -5 -3 -10 -1 -10 4 0 6 5 11 10 11 6 0 10 -2 10
-4z m1364 -22 c8 -20 -1 -34 -20 -34 -8 0 -14 8 -14 18 0 33 23 44 34 16z
m-5184 -9 c-7 -8 -17 -15 -23 -15 -6 0 -2 7 9 15 25 19 30 19 14 0z m3921 -36
c-13 -11 -27 -17 -30 -13 -3 3 5 14 18 25 13 11 27 17 30 13 3 -3 -5 -14 -18
-25z m1384 1 c8 -7 15 -24 15 -39 0 -14 4 -42 10 -61 6 -22 6 -38 0 -44 -15
-15 -12 -44 6 -54 23 -13 16 -96 -9 -100 -15 -3 -18 1 -13 16 5 14 -1 24 -19
36 -29 19 -32 48 -10 90 20 37 16 98 -7 102 -9 1 -18 -7 -21 -17 -6 -23 -45
-26 -54 -4 -3 9 0 35 7 59 12 43 12 43 46 36 19 -5 41 -14 49 -20z m-2218 5
c8 -23 2 -25 -47 -17 -61 10 -65 32 -6 32 33 0 48 -5 53 -15z m-92 -45 c3 -5
-1 -10 -9 -10 -9 0 -16 5 -16 10 0 6 4 10 9 10 6 0 13 -4 16 -10z m105 -31 c0
-12 -37 -12 -45 0 -3 5 3 11 12 13 21 5 33 0 33 -13z m1360 3 c0 -13 -12 -22
-22 -16 -10 6 -1 24 13 24 5 0 9 -4 9 -8z m545 -61 c3 -5 -6 -22 -20 -38 -26
-29 -32 -22 -15 21 10 27 24 33 35 17z m-65 -10 c0 -25 -33 -42 -69 -36 -31 5
-40 2 -61 -19 -36 -39 -98 -33 -63 6 9 10 29 18 44 18 16 0 43 9 61 20 34 21
88 27 88 11z m-4890 -92 c0 -6 -4 -7 -10 -4 -5 3 -10 11 -10 16 0 6 5 7 10 4
6 -3 10 -11 10 -16z m4266 -13 c-6 -25 -42 -53 -53 -42 -6 6 49 75 56 70 2 -2
1 -14 -3 -28z m-92 5 c-10 -10 -27 -29 -37 -41 -13 -16 -22 -19 -29 -12 -14
14 3 36 41 56 38 20 48 19 25 -3z m225 -12 c-11 -22 -30 -24 -47 -7 -22 22
-13 34 23 30 30 -4 33 -6 24 -23z m388 -25 c-3 -3 -12 -4 -19 -1 -8 3 -5 6 6
6 11 1 17 -2 13 -5z m-373 -35 c-3 -5 -14 -4 -26 2 -11 6 -32 8 -46 4 -18 -4
-24 -3 -17 3 23 23 103 14 89 -9z m-409 11 c-3 -5 -15 -10 -26 -10 -11 0 -17
5 -14 10 3 6 15 10 26 10 11 0 17 -4 14 -10z m290 0 c3 -5 -3 -10 -14 -10 -12
0 -21 5 -21 10 0 6 6 10 14 10 8 0 18 -4 21 -10z m-380 -20 c-3 -5 -13 -10
-21 -10 -8 0 -12 5 -9 10 3 6 13 10 21 10 8 0 12 -4 9 -10z m185 -5 c-7 -9
-15 -13 -17 -11 -7 7 7 26 19 26 6 0 6 -6 -2 -15z m444 6 c6 -10 -22 -37 -29
-29 -8 7 5 38 15 38 5 0 11 -4 14 -9z m-921 -18 c-7 -2 -19 -2 -25 0 -7 3 -2
5 12 5 14 0 19 -2 13 -5z m-99 -19 c22 -9 10 -23 -14 -17 -11 3 -17 9 -14 14
6 11 8 11 28 3z m410 -5 c-3 -5 -37 -9 -75 -9 -39 0 -68 4 -65 8 2 4 36 8 75
8 39 1 68 -3 65 -7z m929 -13 c9 -22 -18 -40 -33 -22 -6 9 -9 20 -5 26 9 15
32 12 38 -4z m584 -6 c11 -16 10 -21 -6 -29 -14 -8 -23 -5 -40 13 -28 29 -27
36 7 36 16 0 32 -8 39 -20z m-677 -10 c0 -5 -4 -10 -10 -10 -5 0 -10 5 -10 10
0 6 5 10 10 10 6 0 10 -4 10 -10z m235 -39 c15 -29 7 -49 -14 -36 -5 3 -12 1
-16 -5 -9 -14 -25 -12 -20 3 28 79 28 79 50 38z m-1285 -1 c0 -5 -7 -10 -16
-10 -8 0 -12 5 -9 10 3 6 10 10 16 10 5 0 9 -4 9 -10z m1675 0 c-3 -5 -11 -10
-16 -10 -6 0 -7 5 -4 10 3 6 11 10 16 10 6 0 7 -4 4 -10z m-987 -39 c3 -16 -1
-22 -10 -19 -7 3 -15 15 -16 27 -3 16 1 22 10 19 7 -3 15 -15 16 -27z m911
-33 c1 -5 -3 -8 -9 -8 -5 0 -10 12 -9 28 0 24 1 25 9 7 5 -11 9 -23 9 -27z
m-244 -82 l-13 -31 -1 42 c-1 23 2 49 6 59 6 15 8 13 14 -10 5 -18 3 -40 -6
-60z m-275 33 c0 -11 -4 -18 -10 -14 -5 3 -7 12 -3 20 7 21 13 19 13 -6z
m-4570 -89 c0 -11 -7 -20 -15 -20 -8 0 -15 9 -15 20 0 11 7 20 15 20 8 0 15
-9 15 -20z m5484 -103 c32 -41 32 -47 4 -47 -12 0 -32 12 -45 28 -22 27 -22
27 -23 4 0 -27 -28 -41 -41 -21 -15 24 -10 39 15 39 13 0 29 7 36 15 18 22 26
19 54 -18z m-74 -77 c0 -11 -7 -20 -15 -20 -13 0 -13 3 -3 20 7 11 14 20 15
20 2 0 3 -9 3 -20z m74 -59 c16 -18 16 -19 -6 -23 -13 -3 -31 -9 -40 -13 -23
-9 -24 12 -1 37 20 23 26 23 47 -1z m106 -137 c0 -8 -5 -12 -10 -9 -6 4 -8 11
-5 16 9 14 15 11 15 -7z m0 -59 c0 -8 -9 -15 -20 -15 -13 0 -18 5 -14 15 4 8
12 15 20 15 8 0 14 -7 14 -15z m-13 -61 c-3 -3 -12 -4 -19 -1 -8 3 -5 6 6 6
11 1 17 -2 13 -5z m7 -63 c3 -5 -1 -11 -9 -15 -15 -6 -29 7 -18 18 9 9 21 8
27 -3z m-484 -25 c0 -7 -8 -20 -17 -27 -15 -12 -16 -12 -10 4 5 13 1 17 -21
17 -21 0 -24 2 -12 10 22 14 60 12 60 -4z m-3175 -7 c10 -15 4 -18 -28 -12
-21 4 -25 8 -15 14 18 12 36 11 43 -2z m25 -39 c0 -5 -5 -10 -11 -10 -5 0 -7
5 -4 10 3 6 8 10 11 10 2 0 4 -4 4 -10z m3326 -38 c-18 -16 -18 -16 -6 6 6 13
14 21 18 18 3 -4 -2 -14 -12 -24z m229 18 c-3 -5 -10 -10 -16 -10 -5 0 -9 5
-9 10 0 6 7 10 16 10 8 0 12 -4 9 -10z m-3629 -75 c18 -13 16 -14 -23 -15 -41
0 -57 13 -30 23 21 9 33 7 53 -8z m3639 5 c-3 -5 -13 -10 -21 -10 -8 0 -12 5
-9 10 3 6 13 10 21 10 8 0 12 -4 9 -10z m205 -15 c0 -13 -4 -14 -22 -4 -34 17
-34 19 -5 19 18 0 27 -5 27 -15z m-3950 -5 c0 -5 -7 -10 -15 -10 -8 0 -15 5
-15 10 0 6 7 10 15 10 8 0 15 -4 15 -10z m190 6 c0 -3 -4 -8 -10 -11 -5 -3
-10 -1 -10 4 0 6 5 11 10 11 6 0 10 -2 10 -4z m3670 -26 c0 -5 16 -10 35 -10
19 0 35 -4 35 -10 0 -15 -62 -12 -82 4 -22 16 -23 26 -3 26 8 0 15 -4 15 -10z
m-3546 -6 c24 -9 19 -19 -10 -22 -33 -3 -51 8 -33 19 17 10 23 11 43 3z m-138
-14 c8 0 14 -9 14 -21 0 -15 -4 -19 -16 -15 -9 3 -18 6 -20 6 -2 0 -4 6 -4 14
0 8 -3 16 -7 19 -5 2 -2 2 5 0 8 -1 20 -3 28 -3z m64 0 c0 -5 -9 -10 -21 -10
-11 0 -17 5 -14 10 3 6 13 10 21 10 8 0 14 -4 14 -10z m-386 -52 c-4 -34 -4
-34 -15 -14 -10 16 -2 32 17 36 0 0 0 -10 -2 -22z m-244 -28 c0 -5 -7 -7 -15
-4 -8 4 -15 8 -15 10 0 2 7 4 15 4 8 0 15 -4 15 -10z m4340 0 c0 -5 -7 -10
-16 -10 -8 0 -12 5 -9 10 3 6 10 10 16 10 5 0 9 -4 9 -10z m-4380 -26 c0 -15
-34 -30 -56 -26 -34 6 -29 20 9 25 17 2 35 5 40 5 4 1 7 -1 7 -4z m1040 -34
c0 -12 -28 -25 -36 -17 -9 9 6 27 22 27 8 0 14 -5 14 -10z m-1126 -85 c3 -8
-7 -18 -24 -25 -17 -7 -30 -21 -32 -33 -5 -37 -35 -33 -40 5 -9 55 -7 56 74
65 9 1 19 -4 22 -12z m1116 -9 c0 -3 -4 -8 -10 -11 -5 -3 -10 -1 -10 4 0 6 5
11 10 11 6 0 10 -2 10 -4z m30 -36 c0 -5 -4 -10 -10 -10 -5 0 -10 5 -10 10 0
6 5 10 10 10 6 0 10 -4 10 -10z m2880 -90 c0 -5 -4 -10 -9 -10 -6 0 -13 5 -16
10 -3 6 1 10 9 10 9 0 16 -4 16 -10z m-230 -25 c0 -9 -9 -15 -22 -15 -22 1
-23 1 -4 15 25 19 26 19 26 0z m150 -50 c0 -8 -7 -15 -15 -15 -16 0 -20 12 -8
23 11 12 23 8 23 -8z m-2150 -68 c0 -16 -35 -1 -38 16 -3 16 -1 17 17 5 12 -7
21 -17 21 -21z m2926 -11 c14 -11 16 -18 8 -26 -15 -15 -44 -2 -44 21 0 23 9
24 36 5z m-78 -55 c3 -8 -1 -12 -9 -9 -7 2 -15 10 -17 17 -3 8 1 12 9 9 7 -2
15 -10 17 -17z m-42 -68 c18 -19 21 -29 14 -37 -8 -8 -17 -5 -30 12 -10 12
-25 22 -33 22 -23 0 -47 11 -47 21 0 5 16 9 35 9 26 0 43 -7 61 -27z m-8 -75
c14 -14 16 -38 3 -38 -15 0 -42 31 -36 41 8 12 19 11 33 -3z m52 -13 c0 -8 -7
-15 -15 -15 -16 0 -20 12 -8 23 11 12 23 8 23 -8z m-2790 -72 c0 -13 -3 -13
-15 -3 -8 7 -12 16 -9 21 8 13 24 1 24 -18z m-1495 -3 c4 -6 -7 -10 -27 -10
-25 0 -29 3 -18 10 19 13 37 13 45 0z m1905 -36 c0 -8 -4 -12 -10 -9 -5 3 -10
10 -10 16 0 5 5 9 10 9 6 0 10 -7 10 -16z m1700 -8 c0 -3 -4 -8 -10 -11 -5 -3
-10 -1 -10 4 0 6 5 11 10 11 6 0 10 -2 10 -4z m-1856 -91 c6 -16 -34 -50 -45
-37 -4 4 -10 17 -14 30 -6 19 -3 22 23 22 17 0 32 -6 36 -15z m-1158 -130 c-3
-9 -11 -13 -16 -10 -8 5 -7 11 1 21 14 18 24 11 15 -11z m54 -30 c0 -10 -9
-15 -27 -14 -24 2 -25 2 -5 6 12 2 22 9 22 14 0 5 2 9 5 9 3 0 5 -7 5 -15z
m42 -17 c-12 -12 -35 -1 -27 12 3 5 13 6 21 3 10 -4 12 -9 6 -15z m-1458 -323
c-4 -8 -10 -15 -15 -15 -5 0 -9 7 -9 15 0 8 7 15 15 15 9 0 12 -6 9 -15z m166
-208 c0 -11 -9 -21 -20 -24 -11 -3 -20 -9 -20 -14 0 -19 -75 -39 -146 -39 -41
0 -74 3 -74 7 0 12 33 43 47 43 7 0 13 6 13 14 0 8 20 19 48 26 26 7 53 17 59
23 7 5 19 7 26 4 8 -3 20 -1 27 3 16 10 39 -15 40 -43z m2275 -17 c3 -5 1 -10
-4 -10 -6 0 -11 5 -11 10 0 6 2 10 4 10 3 0 8 -4 11 -10z m1393 -32 c-2 -7 7
-14 20 -16 19 -3 21 -6 11 -18 -13 -16 -15 -15 36 -18 22 -1 61 -12 87 -25 37
-17 48 -29 54 -54 4 -18 9 -26 11 -19 3 6 12 12 22 12 9 0 22 5 28 11 16 16
27 -25 14 -49 -7 -13 -6 -39 1 -83 12 -68 12 -418 0 -478 -8 -36 -32 -55 -32
-25 0 25 -49 182 -69 224 -10 19 -34 69 -54 111 -20 41 -47 87 -59 102 -13 15
-32 47 -42 73 -15 38 -16 48 -5 54 7 5 16 7 20 4 4 -2 10 0 13 5 4 5 2 12 -4
16 -5 3 -10 15 -10 26 0 10 -6 19 -13 19 -7 0 -18 14 -24 30 -8 21 -18 30 -33
30 -19 0 -20 3 -10 15 6 8 8 20 4 26 -4 7 1 18 11 26 23 16 26 16 23 1z m-78
-12 c0 -3 -4 -8 -10 -11 -5 -3 -10 -1 -10 4 0 6 5 11 10 11 6 0 10 -2 10 -4z
m-3475 -108 c4 -3 9 -35 11 -70 2 -35 9 -80 15 -101 7 -20 10 -39 7 -42 -12
-12 -140 62 -213 123 -33 27 -38 35 -29 50 6 9 20 18 32 20 11 2 25 9 30 15
11 13 135 17 147 5z m567 -83 c3 3 11 -1 18 -10 10 -12 10 -21 2 -38 -9 -18
-11 -19 -11 -4 -1 10 -9 17 -21 17 -15 0 -20 7 -20 26 0 21 3 24 13 15 8 -6
16 -9 19 -6z m-352 -30 c0 -14 -25 -27 -34 -18 -3 4 -6 14 -6 24 0 12 6 16 20
12 11 -3 20 -11 20 -18z m400 -97 c0 -20 -5 -40 -11 -44 -8 -4 -8 -9 0 -17 19
-19 13 -23 -45 -36 -53 -12 -58 -12 -77 7 l-20 21 27 33 c52 65 64 74 98 73
26 0 28 -3 28 -37z m-272 10 c-7 -20 -48 -23 -48 -4 0 11 9 16 26 16 16 0 24
-5 22 -12z m-2264 -104 c11 -28 6 -39 -9 -20 -8 11 -15 23 -15 28 0 14 18 9
24 -8z m1906 -74 c0 -5 -5 -10 -11 -10 -5 0 -7 5 -4 10 3 6 8 10 11 10 2 0 4
-4 4 -10z m65 -57 c0 -7 -3 -13 -7 -13 -5 0 -21 0 -38 0 -20 0 -30 5 -30 15 0
10 10 14 38 12 22 -1 37 -7 37 -14z m55 -15 c0 -28 -16 -55 -27 -45 -4 5 -1
12 7 18 13 7 13 10 1 18 -7 5 -10 14 -7 20 12 19 26 12 26 -11z m-405 2 c3 -5
-1 -10 -9 -10 -9 0 -16 5 -16 10 0 6 4 10 9 10 6 0 13 -4 16 -10z m-1478 -76
c1 -5 -2 -16 -7 -24 -9 -13 -11 -13 -19 -1 -5 8 -7 20 -4 28 6 15 25 13 30 -3z
m4848 -391 c65 -66 82 -99 86 -163 3 -43 0 -48 -50 -95 -51 -48 -53 -49 -114
-47 -62 2 -106 12 -164 39 -40 18 -42 30 -7 39 24 6 104 95 104 115 0 5 6 9
14 9 27 0 46 42 46 102 0 75 12 75 85 1z m-4915 -49 c0 -24 -17 -15 -22 11 -4
20 -3 23 8 14 8 -6 14 -18 14 -25z m-66 -9 c-4 -8 -14 -15 -23 -15 -14 1 -13
3 3 15 25 19 27 19 20 0z m4766 -57 c0 -25 -3 -29 -10 -18 -13 20 -13 50 0 50
6 0 10 -15 10 -32z m-4793 -70 c-3 -8 -6 -5 -6 6 -1 11 2 17 5 13 3 -3 4 -12
1 -19z m4784 -134 c11 -14 9 -15 -16 -12 -16 1 -30 9 -33 16 -6 18 33 15 49
-4z m94 -25 c4 -6 5 -13 1 -16 -8 -8 -56 6 -56 17 0 13 47 13 55 -1z m68 -16
c-7 -2 -19 -2 -25 0 -7 3 -2 5 12 5 14 0 19 -2 13 -5z m-2605 -650 c2 -7 -1
-13 -6 -13 -17 0 -42 12 -42 20 0 12 43 6 48 -7z m-44 -159 c4 -10 1 -14 -6
-12 -15 5 -23 28 -10 28 5 0 13 -7 16 -16z m-104 -214 c0 -5 -5 -10 -11 -10
-5 0 -7 5 -4 10 3 6 8 10 11 10 2 0 4 -4 4 -10z m1040 -12 c0 -5 5 -6 10 -3 6
3 10 -1 10 -9 0 -23 -17 -28 -34 -10 -20 20 -21 45 -1 38 8 -4 15 -10 15 -16z
m-3040 -378 c0 -5 -5 -10 -11 -10 -5 0 -7 5 -4 10 3 6 8 10 11 10 2 0 4 -4 4
-10z m3332 -32 c-6 -6 -15 -9 -18 -5 -4 3 -4 14 0 23 5 13 9 15 18 6 9 -9 9
-15 0 -24z m138 -8 c0 -5 -5 -10 -11 -10 -5 0 -7 5 -4 10 3 6 8 10 11 10 2 0
4 -4 4 -10z m-3393 -32 c-3 -8 -6 -5 -6 6 -1 11 2 17 5 13 3 -3 4 -12 1 -19z
m3178 -66 c5 -12 18 -22 30 -24 14 -2 20 -11 22 -32 1 -16 16 -45 33 -65 61
-72 76 -131 32 -131 -10 0 -24 11 -30 25 -6 14 -18 25 -27 25 -8 0 -15 9 -15
19 0 11 -11 33 -25 50 -21 24 -35 31 -73 33 -36 2 -47 7 -47 20 0 10 -6 23
-13 30 -15 15 -15 33 -2 58 15 28 101 23 115 -8z m-356 -3 c17 -6 31 -16 31
-22 0 -8 22 -12 60 -12 62 -1 77 -6 65 -25 -5 -8 -11 -8 -19 -1 -9 8 -24 5
-52 -8 -45 -22 -120 -16 -137 10 -11 17 -2 69 12 69 4 0 22 -5 40 -11z m-3003
-96 c3 -18 10 -33 15 -33 15 0 10 -48 -8 -65 -9 -9 -27 -21 -41 -26 -20 -8
-30 -5 -49 12 -23 23 -32 59 -13 59 6 0 10 14 10 30 0 26 4 30 26 30 19 0 25
4 20 15 -3 8 -3 22 1 31 6 15 7 15 19 -1 8 -10 17 -33 20 -52z m3762 -5 c19
-25 24 -58 8 -58 -21 0 -46 28 -46 51 0 21 22 25 38 7z m-3598 -126 c0 -15 -2
-15 -10 -2 -13 20 -13 33 0 25 6 -3 10 -14 10 -23z m3600 2 c0 -8 -4 -14 -10
-14 -5 0 -10 9 -10 21 0 11 5 17 10 14 6 -3 10 -13 10 -21z m-3860 -24 c8 -5
11 -12 8 -16 -4 -3 -14 1 -23 10 -18 17 -9 21 15 6z m170 -18 c0 -9 7 -26 15
-36 18 -24 19 -40 3 -29 -7 4 -24 8 -38 9 -14 0 -41 2 -60 3 l-35 3 30 9 c17
5 37 6 46 4 19 -6 31 16 19 35 -5 8 -6 18 -4 22 8 13 24 -1 24 -20z m3484 -59
c4 -9 3 -20 -2 -25 -6 -6 -11 1 -14 16 -6 29 6 35 16 9z m-3334 -24 c0 -10 -4
-19 -10 -19 -5 0 -10 12 -10 26 0 14 4 23 10 19 6 -3 10 -15 10 -26z m3747 -1
c-3 -8 -6 -5 -6 6 -1 11 2 17 5 13 3 -3 4 -12 1 -19z m-1943 -34 c5 -14 4 -15
-9 -4 -17 14 -19 20 -6 20 5 0 12 -7 15 -16z m-2064 -28 c0 -3 -4 -8 -10 -11
-5 -3 -10 -1 -10 4 0 6 5 11 10 11 6 0 10 -2 10 -4z m177 -18 c-3 -8 -6 -5 -6
6 -1 11 2 17 5 13 3 -3 4 -12 1 -19z m1878 -30 c-2 -26 -24 -36 -36 -17 -15
24 -10 39 14 39 18 0 23 -5 22 -22z m-1855 -8 c0 -5 -4 -10 -10 -10 -5 0 -10
5 -10 10 0 6 5 10 10 10 6 0 10 -4 10 -10z m485 -19 c3 -5 1 -12 -5 -16 -5 -3
-10 1 -10 9 0 18 6 21 15 7z m865 -111 c0 -5 -4 -10 -10 -10 -5 0 -10 5 -10
10 0 6 5 10 10 10 6 0 10 -4 10 -10z m-930 -75 c0 -8 -4 -15 -10 -15 -5 0 -10
7 -10 15 0 8 5 15 10 15 6 0 10 -7 10 -15z m1475 -75 c3 -5 -1 -10 -10 -10 -9
0 -13 5 -10 10 3 6 8 10 10 10 2 0 7 -4 10 -10z m-25 -44 c0 -3 -4 -8 -10 -11
-5 -3 -10 -1 -10 4 0 6 5 11 10 11 6 0 10 -2 10 -4z m-174 -166 c8 0 14 -7 14
-15 0 -13 -4 -14 -20 -5 -11 6 -20 18 -19 28 0 10 3 12 6 5 2 -7 11 -13 19
-13z m-856 -27 c0 -5 -7 -17 -15 -27 -14 -19 -15 -19 -15 7 0 17 5 27 15 27 8
0 15 -3 15 -7z m-1190 -17 c0 -8 -11 -24 -25 -37 -13 -13 -25 -31 -25 -38 0
-12 -3 -12 -12 -3 -9 9 -7 16 7 32 10 11 15 23 12 27 -9 9 12 33 29 33 8 0 14
-6 14 -14z m3330 -130 c0 -2 3 -13 6 -23 6 -15 4 -16 -7 -5 -7 6 -21 12 -31
12 -10 0 -18 5 -18 10 0 6 11 10 25 10 14 0 25 -2 25 -4z m-1640 -140 c0 -3
-4 -8 -10 -11 -5 -3 -10 -1 -10 4 0 6 5 11 10 11 6 0 10 -2 10 -4z m-1822 -39
c-7 -14 -13 -17 -16 -9 -6 19 6 44 18 37 7 -4 6 -14 -2 -28z m3185 -177 c3
-11 1 -20 -4 -20 -5 0 -9 9 -9 20 0 11 2 20 4 20 2 0 6 -9 9 -20z m197 -270
c7 -16 9 -37 6 -46 -11 -29 -36 4 -36 48 0 44 11 43 30 -2z m50 -20 c0 -5 -4
-10 -10 -10 -5 0 -10 5 -10 10 0 6 5 10 10 10 6 0 10 -4 10 -10z m220 -180 c0
-5 -4 -10 -10 -10 -5 0 -10 5 -10 10 0 6 5 10 10 10 6 0 10 -4 10 -10z"/>
<path d="M9680 8190 c0 -5 4 -10 9 -10 6 0 13 5 16 10 3 6 -1 10 -9 10 -9 0
-16 -4 -16 -10z"/>
<path d="M4090 5249 c0 -5 -4 -8 -9 -5 -12 8 -12 -57 0 -75 6 -10 9 -7 9 13 0
18 7 29 20 33 23 7 25 16 8 33 -15 15 -28 15 -28 1z"/>
<path d="M5390 12385 c7 -9 15 -13 17 -11 7 7 -7 26 -19 26 -6 0 -6 -6 2 -15z"/>
<path d="M10640 10180 c0 -5 18 -10 40 -10 22 0 40 5 40 10 0 6 -18 10 -40 10
-22 0 -40 -4 -40 -10z"/>
<path d="M10892 10167 c-16 -18 -1 -35 31 -35 28 1 35 16 15 36 -16 16 -33 15
-46 -1z"/>
<path d="M10935 10057 c-9 -34 10 -61 25 -37 13 20 12 23 -4 46 -14 18 -15 18
-21 -9z"/>
<path d="M10980 9864 c0 -31 2 -35 15 -24 8 6 18 10 22 7 4 -3 9 8 10 24 2 25
-1 29 -22 29 -22 0 -25 -4 -25 -36z"/>
<path d="M6503 9836 c9 -7 17 -17 17 -21 0 -8 47 -55 56 -55 2 0 4 4 4 10 0
15 -67 80 -82 80 -9 -1 -7 -5 5 -14z"/>
<path d="M6802 9839 c-12 -5 -22 -13 -22 -19 0 -11 22 -12 58 -2 21 7 21 8 5
18 -11 7 -27 8 -41 3z"/>
<path d="M6398 9773 c7 -3 16 -2 19 1 4 3 -2 6 -13 5 -11 0 -14 -3 -6 -6z"/>
<path d="M6320 9725 c0 -8 7 -15 15 -15 8 0 15 7 15 15 0 8 -7 15 -15 15 -8 0
-15 -7 -15 -15z"/>
<path d="M6373 9715 c-7 -21 4 -32 19 -17 7 7 20 12 30 12 10 0 18 5 18 10 0
17 -60 12 -67 -5z"/>
<path d="M6360 9666 c0 -9 5 -16 10 -16 6 0 10 4 10 9 0 6 -4 13 -10 16 -5 3
-10 -1 -10 -9z"/>
<path d="M7120 9659 c0 -5 5 -7 10 -4 6 3 10 8 10 11 0 2 -4 4 -10 4 -5 0 -10
-5 -10 -11z"/>
<path d="M7050 9620 c-8 -5 -11 -12 -7 -16 4 -4 13 -2 19 4 15 15 7 24 -12 12z"/>
<path d="M6230 9510 c0 -25 4 -30 25 -30 30 0 33 20 4 27 -12 3 -18 11 -15 19
3 8 1 14 -4 14 -6 0 -10 -13 -10 -30z"/>
<path d="M7317 9364 c-10 -11 3 -24 24 -24 10 0 19 7 19 15 0 15 -31 21 -43 9z"/>
<path d="M6335 9260 c-3 -5 -1 -10 4 -10 6 0 11 5 11 10 0 6 -2 10 -4 10 -3 0
-8 -4 -11 -10z"/>
<path d="M10865 9170 c3 -5 8 -10 11 -10 2 0 4 5 4 10 0 6 -5 10 -11 10 -5 0
-7 -4 -4 -10z"/>
<path d="M8024 8994 c3 -9 6 -17 6 -19 0 -2 16 -9 35 -15 19 -6 35 -16 35 -21
0 -5 7 -9 15 -9 20 0 19 10 -2 26 -17 13 -17 13 0 14 48 1 -22 40 -72 40 -17
0 -22 -4 -17 -16z"/>
<path d="M8194 8975 c-9 -22 3 -45 20 -39 8 3 17 0 21 -5 3 -6 11 -9 16 -6 15
10 10 23 -11 30 -11 3 -20 13 -20 21 0 19 -19 18 -26 -1z"/>
<path d="M7983 8958 c-3 -6 1 -14 8 -19 19 -12 25 -11 38 5 9 11 6 15 -14 18
-14 3 -28 1 -32 -4z"/>
<path d="M7985 8920 c-3 -5 -1 -10 4 -10 6 0 11 5 11 10 0 6 -2 10 -4 10 -3 0
-8 -4 -11 -10z"/>
<path d="M3674 8840 c-48 -19 -186 -220 -234 -340 -31 -76 -35 -98 -40 -210
-5 -129 2 -217 22 -254 9 -16 12 -18 16 -6 2 8 15 26 27 40 12 14 33 41 46 61
28 43 136 185 162 214 10 11 45 60 78 110 63 92 89 150 89 197 0 15 5 30 10
33 18 11 11 39 -24 91 -26 38 -43 53 -74 62 -45 14 -49 14 -78 2z"/>
<path d="M5328 8823 c6 -2 18 -2 25 0 6 3 1 5 -13 5 -14 0 -19 -2 -12 -5z"/>
<path d="M9255 8479 c-3 -4 1 -9 9 -12 8 -3 17 0 19 7 5 13 -21 18 -28 5z"/>
<path d="M9220 8440 c0 -5 5 -10 11 -10 5 0 7 5 4 10 -3 6 -8 10 -11 10 -2 0
-4 -4 -4 -10z"/>
<path d="M9190 8410 c0 -6 7 -10 15 -10 8 0 15 2 15 4 0 2 -7 6 -15 10 -8 3
-15 1 -15 -4z"/>
<path d="M4065 8309 c-7 -20 6 -38 28 -39 11 0 8 23 -7 43 -14 18 -15 17 -21
-4z"/>
<path d="M4190 8176 c0 -9 7 -16 16 -16 17 0 14 22 -4 28 -7 2 -12 -3 -12 -12z"/>
<path d="M5610 8039 c0 -5 5 -7 10 -4 6 3 10 8 10 11 0 2 -4 4 -10 4 -5 0 -10
-5 -10 -11z"/>
<path d="M5580 7850 c0 -5 5 -10 10 -10 6 0 10 5 10 10 0 6 -4 10 -10 10 -5 0
-10 -4 -10 -10z"/>
<path d="M5610 7856 c0 -2 9 -6 20 -9 11 -3 18 -1 14 4 -5 9 -34 13 -34 5z"/>
<path d="M3405 7503 c3 -15 10 -69 14 -120 5 -59 14 -100 23 -111 9 -9 18 -29
22 -44 3 -16 13 -28 21 -28 13 0 14 13 9 83 -7 89 -23 150 -57 209 -24 44 -42
50 -32 11z"/>
<path d="M9340 7360 c0 -5 5 -10 11 -10 5 0 7 5 4 10 -3 6 -8 10 -11 10 -2 0
-4 -4 -4 -10z"/>
<path d="M6220 7351 c0 -11 31 -24 39 -16 3 3 -1 10 -9 15 -19 12 -30 12 -30
1z"/>
<path d="M4138 7318 c9 -9 15 -9 24 0 9 9 7 12 -12 12 -19 0 -21 -3 -12 -12z"/>
<path d="M6298 6965 c-18 -41 -12 -48 45 -52 34 -2 37 0 37 23 0 69 -55 88
-82 29z"/>
<path d="M6933 6853 c-33 -6 -28 -18 7 -20 21 -2 30 2 30 12 0 8 -3 14 -7 14
-5 -1 -18 -4 -30 -6z"/>
<path d="M6837 6825 c-9 -23 11 -28 23 -5 8 16 8 20 -4 20 -7 0 -16 -7 -19
-15z"/>
<path d="M4131 6444 c0 -11 3 -14 6 -6 3 7 2 16 -1 19 -3 4 -6 -2 -5 -13z"/>
<path d="M4066 6433 c-6 -15 8 -32 26 -33 8 0 -2 39 -12 45 -4 3 -11 -3 -14
-12z"/>
<path d="M4151 6270 c0 -33 1 -34 11 -12 8 17 8 26 0 34 -9 9 -12 4 -11 -22z"/>
<path d="M4156 6218 c-5 -10 -14 -18 -22 -18 -8 0 -14 -6 -14 -14 0 -8 -9 -18
-20 -21 -22 -7 -26 -20 -9 -30 13 -9 71 14 64 25 -3 5 0 10 6 12 6 2 9 17 7
33 -3 24 -6 27 -12 13z"/>
<path d="M6138 6079 c-34 -19 -16 -95 18 -82 13 5 18 -7 15 -34 -1 -7 2 -13 8
-13 5 0 11 6 14 13 3 9 9 9 25 0 32 -19 18 11 -15 32 -20 13 -24 23 -20 44 3
16 1 33 -6 40 -13 13 -17 13 -39 0z"/>
<path d="M4130 5899 c0 -15 7 -29 15 -33 19 -7 19 -5 0 30 l-15 29 0 -26z"/>
<path d="M4150 5794 c0 -22 2 -24 14 -14 8 6 12 18 9 26 -9 23 -23 16 -23 -12z"/>
<path d="M4220 5785 c0 -8 5 -15 10 -15 6 0 10 7 10 15 0 8 -4 15 -10 15 -5 0
-10 -7 -10 -15z"/>
<path d="M4107 5733 c-10 -9 -8 -43 2 -43 5 0 14 7 21 15 17 21 -4 48 -23 28z"/>
<path d="M4120 5675 c0 -8 5 -15 10 -15 6 0 10 7 10 15 0 8 -4 15 -10 15 -5 0
-10 -7 -10 -15z"/>
<path d="M4132 5556 c7 -8 15 -12 17 -11 5 6 -10 25 -20 25 -5 0 -4 -6 3 -14z"/>
<path d="M4575 5120 c3 -5 8 -10 11 -10 2 0 4 5 4 10 0 6 -5 10 -11 10 -5 0
-7 -4 -4 -10z"/>
<path d="M4501 5066 c-9 -10 -9 -16 -1 -21 16 -10 31 7 21 23 -6 10 -10 10
-20 -2z"/>
<path d="M8976 5042 c-10 -20 -12 -42 -7 -82 l7 -55 12 60 c7 33 14 68 16 77
7 30 -12 30 -28 0z"/>
<path d="M4706 4913 c-4 -9 -2 -21 4 -27 7 -7 10 -2 10 17 0 31 -5 34 -14 10z"/>
<path d="M4860 4816 c0 -2 7 -7 16 -10 8 -3 12 -2 9 4 -6 10 -25 14 -25 6z"/>
<path d="M7030 4760 c0 -5 5 -10 10 -10 6 0 10 5 10 10 0 6 -4 10 -10 10 -5 0
-10 -4 -10 -10z"/>
<path d="M6634 4724 c3 -9 6 -18 6 -20 0 -2 11 -4 25 -4 29 0 32 8 8 26 -25
19 -47 18 -39 -2z"/>
<path d="M5658 4702 c-3 -11 -14 -22 -24 -25 -11 -2 -5 -2 13 0 17 2 33 -1 35
-8 5 -14 88 -30 88 -16 0 17 -51 58 -80 63 -21 5 -28 2 -32 -14z"/>
<path d="M5770 4690 c0 -5 5 -10 10 -10 6 0 10 5 10 10 0 6 -4 10 -10 10 -5 0
-10 -4 -10 -10z"/>
<path d="M6720 4680 c0 -5 5 -10 10 -10 6 0 10 5 10 10 0 6 -4 10 -10 10 -5 0
-10 -4 -10 -10z"/>
<path d="M6057 4674 c-12 -13 -7 -20 13 -20 11 0 19 5 17 10 -4 13 -21 18 -30
10z"/>
<path d="M6770 4659 c0 -15 43 -37 83 -42 37 -5 38 -4 23 17 -8 11 -18 20 -23
19 -5 -1 -26 2 -46 7 -21 4 -37 4 -37 -1z"/>
<path d="M5030 4624 c0 -8 5 -12 10 -9 6 4 8 11 5 16 -9 14 -15 11 -15 -7z"/>
<path d="M5520 4633 c0 -6 27 -33 34 -33 16 0 3 28 -14 33 -11 3 -20 3 -20 0z"/>
<path d="M5782 4624 c-16 -11 -22 -12 -22 -3 0 10 -3 10 -12 1 -10 -10 -10
-15 2 -22 8 -5 23 -10 33 -10 10 0 15 -4 12 -10 -3 -5 1 -10 9 -10 11 0 16 9
16 29 0 37 -11 44 -38 25z"/>
<path d="M5600 4620 c0 -5 5 -10 11 -10 5 0 7 5 4 10 -3 6 -8 10 -11 10 -2 0
-4 -4 -4 -10z"/>
<path d="M8931 4614 c0 -11 3 -14 6 -6 3 7 2 16 -1 19 -3 4 -6 -2 -5 -13z"/>
<path d="M5777 4534 c-10 -10 -9 -44 2 -44 13 0 23 32 13 42 -5 5 -11 5 -15 2z"/>
<path d="M5690 4500 c0 -5 5 -10 10 -10 6 0 10 5 10 10 0 6 -4 10 -10 10 -5 0
-10 -4 -10 -10z"/>
<path d="M5799 4460 c13 -12 21 -26 17 -35 -3 -9 0 -15 9 -15 8 0 15 5 15 10
0 6 9 10 21 10 16 0 19 -4 14 -22 -9 -26 -9 -94 0 -108 3 -5 10 -10 15 -10 10
0 7 70 -4 88 -5 8 -1 21 9 32 27 29 12 50 -35 50 -22 0 -40 5 -40 10 0 6 -10
10 -22 10 l-23 -1 24 -19z"/>
<path d="M8891 4404 c0 -11 3 -14 6 -6 3 7 2 16 -1 19 -3 4 -6 -2 -5 -13z"/>
<path d="M5781 4394 c0 -11 3 -14 6 -6 3 7 2 16 -1 19 -3 4 -6 -2 -5 -13z"/>
<path d="M5826 4345 c-3 -9 0 -15 9 -15 8 0 15 7 15 15 0 8 -4 15 -9 15 -5 0
-11 -7 -15 -15z"/>
<path d="M5330 4340 c0 -5 7 -7 15 -4 8 4 15 8 15 10 0 2 -7 4 -15 4 -8 0 -15
-4 -15 -10z"/>
<path d="M5976 4291 c-3 -4 4 -26 15 -47 11 -22 17 -29 14 -16 -4 13 -1 30 6
38 10 13 10 17 -2 25 -18 11 -26 11 -33 0z"/>
<path d="M7246 3751 c-4 -7 -5 -15 -2 -18 9 -9 19 4 14 18 -4 11 -6 11 -12 0z"/>
<path d="M7644 3566 c-6 -16 14 -61 23 -52 3 3 14 1 23 -4 13 -7 21 -5 30 5 7
8 19 15 26 15 8 0 14 7 14 15 0 11 -7 13 -28 9 -19 -4 -34 0 -45 10 -19 20
-36 20 -43 2z"/>
<path d="M6823 2378 c-29 -46 -48 -124 -36 -151 48 -110 80 -164 156 -267 88
-117 130 -220 131 -320 1 -32 3 -35 30 -33 50 4 52 15 22 110 -29 94 -73 213
-112 303 -13 30 -46 110 -74 178 -49 119 -88 192 -102 192 -4 0 -10 -6 -15
-12z"/>
<path d="M7088 2275 c33 -66 68 -142 77 -170 10 -27 21 -54 25 -60 4 -5 17
-41 29 -80 32 -105 38 -125 51 -182 7 -29 15 -53 19 -53 13 0 41 70 41 101 0
17 -7 59 -15 93 -25 97 -42 132 -129 266 -38 58 -77 114 -87 125 -10 11 -30
34 -44 50 -19 22 -10 -3 33 -90z"/>
<path d="M8011 2024 c0 -11 3 -14 6 -6 3 7 2 16 -1 19 -3 4 -6 -2 -5 -13z"/>
<path d="M5037 1974 c-14 -14 -6 -34 37 -96 103 -149 139 -235 190 -453 38
-167 42 -211 56 -685 8 -284 10 -311 35 -395 37 -128 84 -221 144 -287 39 -42
60 -58 79 -58 25 0 24 3 -29 57 -77 80 -111 137 -148 248 -42 127 -49 195 -61
570 -5 176 -11 331 -14 345 -2 14 -7 48 -11 75 -12 98 -47 261 -71 330 -28 84
-43 114 -112 225 -65 106 -86 133 -95 124z"/>
<path d="M7911 1544 c0 -11 3 -14 6 -6 3 7 2 16 -1 19 -3 4 -6 -2 -5 -13z"/>
<path d="M7897 1428 c-20 -249 5 -436 108 -823 32 -121 44 -221 46 -380 2
-137 17 -102 18 42 1 118 -14 209 -74 452 -77 312 -88 383 -88 604 0 103 -1
187 -2 187 -1 0 -5 -37 -8 -82z"/>
<path d="M10857 366 c-3 -8 9 -34 27 -58 94 -123 156 -209 156 -216 0 -5 16
-27 36 -50 l36 -42 291 0 c331 1 326 -2 130 71 -124 46 -327 145 -392 193
-119 86 -270 140 -284 102z"/>
<path d="M8026 34 c-4 -14 -5 -28 -3 -31 3 -2 8 8 11 23 4 14 5 28 3 31 -3 2
-8 -8 -11 -23z"/>
</g>
</svg>
